<?xml version="1.0" encoding="UTF-8"?>
<svg width="159px" height="22px" viewBox="0 0 159 22" version="1.1" xmlns="http://www.w3.org/2000/svg" xmlns:xlink="http://www.w3.org/1999/xlink">
    <!-- Generator: Sketch 64 (93537) - https://sketch.com -->
    <title>Group 6</title>
    <desc>Created with Sketch.</desc>
    <defs>
        <linearGradient x1="0%" y1="0%" x2="94.3920059%" y2="100%" id="linearGradient-1">
            <stop stop-color="#796EFF" offset="0%"></stop>
            <stop stop-color="#B16EFF" offset="100%"></stop>
        </linearGradient>
    </defs>
    <g id="Page-1" stroke="none" stroke-width="1" fill="none" fill-rule="evenodd">
        <g id="A4" transform="translate(-86.000000, -433.000000)">
            <g id="Group-6" transform="translate(86.000000, 433.000000)">
                <g id="Group-4" transform="translate(0.000000, 0.123189)">
                    <g id="Group-5" transform="translate(0.000000, 0.053827)">
                        <path d="M43.818745,5.39794175 L43.818745,16.6903491 L40.4411961,16.6903491 L40.4411961,15.4695483 L40.4005027,15.4695483 C39.8307957,16.568269 38.4268748,17.076936 37.1043406,17.076936 C33.5233249,17.076936 31.4276169,14.2690942 31.4276169,11.0339721 C31.4276169,7.33087635 34.0930319,5.01135483 37.1043406,5.01135483 C38.9558885,5.01135483 39.9935691,5.90660875 40.4005027,6.59839587 L40.4411961,6.59839587 L40.4411961,5.39794175 L43.818745,5.39794175 Z M34.8051657,11.0746655 C34.8051657,12.1326928 35.5783396,13.9232006 37.6130076,13.9232006 C39.7290623,13.9232006 40.4411961,12.1326928 40.4411961,11.0339721 C40.4411961,9.67074454 39.5052488,8.16509023 37.5926609,8.16509023 C35.6597263,8.16509023 34.8051657,9.79282462 34.8051657,11.0746655 Z M46.2806932,20.4544849 L46.2806932,5.39794175 L49.4547753,5.39794175 L49.4547753,6.63908923 L49.5158153,6.63908923 C50.1872558,5.78452867 51.3063232,5.01135483 53.035791,5.01135483 C57.0440869,5.01135483 58.5497412,8.53133046 58.5497412,11.1560522 C58.5497412,14.411521 56.2709131,17.076936 53.0561376,17.076936 C51.0214697,17.076936 50.0651757,16.1002954 49.6582421,15.6730151 L49.6582421,20.4544849 L46.2806932,20.4544849 Z M52.3440039,13.9232006 C54.114165,13.9232006 55.1721924,12.4785864 55.1721924,11.0543188 C55.1721924,9.7114379 54.1955517,8.16509023 52.3440039,8.16509023 C50.492456,8.16509023 49.5158153,9.7114379 49.5158153,11.0543188 C49.5158153,12.4785864 50.5738427,13.9232006 52.3440039,13.9232006 Z M60.4623291,20.4544849 L60.4623291,5.39794175 L63.6364112,5.39794175 L63.6364112,6.63908923 L63.6974513,6.63908923 C64.3688917,5.78452867 65.4879591,5.01135483 67.2174269,5.01135483 C71.2257228,5.01135483 72.7313772,8.53133046 72.7313772,11.1560522 C72.7313772,14.411521 70.452549,17.076936 67.2377736,17.076936 C65.2031056,17.076936 64.2468116,16.1002954 63.839878,15.6730151 L63.839878,20.4544849 L60.4623291,20.4544849 Z M66.5256398,13.9232006 C68.2958009,13.9232006 69.3538283,12.4785864 69.3538283,11.0543188 C69.3538283,9.7114379 68.3771876,8.16509023 66.5256398,8.16509023 C64.6740919,8.16509023 63.6974513,9.7114379 63.6974513,11.0543188 C63.6974513,12.4785864 64.7554786,13.9232006 66.5256398,13.9232006 Z M78.6929544,1.63380596 L78.6929544,5.39794175 L80.3206888,5.39794175 L80.3206888,7.96162343 L78.6929544,7.96162343 L78.6929544,16.6903491 L75.3154055,16.6903491 L75.3154055,7.96162343 L73.6469777,7.96162343 L73.6469777,5.39794175 L75.3154055,5.39794175 L75.3154055,1.63380596 L78.6929544,1.63380596 Z M81.765303,16.6903491 L81.765303,5.39794175 L84.9393851,5.39794175 L84.9393851,6.59839587 L84.9800785,6.59839587 C85.264932,6.04903551 85.8549857,5.01135483 87.808267,5.01135483 L87.808267,8.40925038 C86.2415726,8.44994374 85.1428519,8.77549062 85.1428519,10.4846117 L85.1428519,16.6903491 L81.765303,16.6903491 Z M101.033609,5.39794175 L101.033609,16.6903491 L97.6560601,16.6903491 L97.6560601,15.4695483 L97.6153667,15.4695483 C97.0456597,16.568269 95.6417388,17.076936 94.3192046,17.076936 C90.7381889,17.076936 88.6424809,14.2690942 88.6424809,11.0339721 C88.6424809,7.33087635 91.3078959,5.01135483 94.3192046,5.01135483 C96.1707524,5.01135483 97.2084331,5.90660875 97.6153667,6.59839587 L97.6560601,6.59839587 L97.6560601,5.39794175 L101.033609,5.39794175 Z M92.0200297,11.0746655 C92.0200297,12.1326928 92.7932036,13.9232006 94.8278716,13.9232006 C96.9439263,13.9232006 97.6560601,12.1326928 97.6560601,11.0339721 C97.6560601,9.67074454 96.7201128,8.16509023 94.8075249,8.16509023 C92.8745903,8.16509023 92.0200297,9.79282462 92.0200297,11.0746655 Z M111.471456,12.3971997 L114.910045,12.3971997 C114.299644,14.9608813 112.041163,17.0565894 108.989161,17.0565894 C105.570919,17.0565894 102.946197,14.3708276 102.946197,11.0136254 C102.946197,7.69711659 105.530225,5.01135483 108.907774,5.01135483 C111.898736,5.01135483 114.319991,6.98498279 114.889698,9.75213126 L111.471456,9.75213126 C111.105216,8.97895742 110.433775,8.16509023 109.029854,8.16509023 C107.422466,8.08370351 106.344092,9.4062377 106.344092,11.0339721 C106.344092,12.6820532 107.422466,13.902854 109.029854,13.902854 C110.433775,13.902854 111.105216,13.0889868 111.471456,12.3971997 Z M120.810582,1.63380596 L120.810582,5.39794175 L122.438316,5.39794175 L122.438316,7.96162343 L120.810582,7.96162343 L120.810582,16.6903491 L117.433033,16.6903491 L117.433033,7.96162343 L115.764605,7.96162343 L115.764605,5.39794175 L117.433033,5.39794175 L117.433033,1.63380596 L120.810582,1.63380596 Z M127.280826,5.39794175 L127.280826,16.6903491 L123.903277,16.6903491 L123.903277,5.39794175 L127.280826,5.39794175 Z M127.280826,1.63380596 L127.280826,4.19748764 L123.903277,4.19748764 L123.903277,1.63380596 L127.280826,1.63380596 Z M140.200968,5.39794175 L136.131632,16.6903491 L132.89651,16.6903491 L128.84752,5.39794175 L132.347149,5.39794175 L134.503897,12.437893 L134.544591,12.437893 L136.701339,5.39794175 L140.200968,5.39794175 Z M149.1942,13.1500268 L152.653136,13.1500268 C152.103776,14.411521 151.310255,15.3881616 150.353961,16.0392554 C149.418014,16.7106958 148.298946,17.0565894 147.139186,17.0565894 C143.904064,17.0565894 141.157262,14.4318676 141.157262,11.0746655 C141.157262,7.92093007 143.639557,5.01135483 147.078146,5.01135483 C150.516735,5.01135483 153.039723,7.73780995 153.039723,11.1763989 C153.039723,11.6240258 152.99903,11.8071459 152.958336,12.0716528 L144.494117,12.0716528 C144.697584,13.4145336 145.816651,14.2080542 147.139186,14.2080542 C148.176866,14.2080542 148.726227,13.7400805 149.1942,13.1500268 Z M144.534811,9.79282462 L149.662174,9.79282462 C149.519747,9.12138418 148.848307,7.85989003 147.098492,7.85989003 C145.348678,7.85989003 144.677237,9.12138418 144.534811,9.79282462 Z M158.655407,13.2314135 L158.655407,16.6903491 L155.135431,16.6903491 L155.135431,13.2314135 L158.655407,13.2314135 Z" id="apptractive." fill="#2E3C54"></path>
                        <g id="Group-2" transform="translate(0.016030, 0.063397)" fill-rule="nonzero">
                            <g id="Group-3" transform="translate(0.047512, 0.026455)">
                                <rect id="Rectangle-11" fill="url(#linearGradient-1)" x="0.221500695" y="0.0511325479" width="21.4860941" height="21.4860941" rx="4.29721881"></rect>
                                <path d="M10.5162697,5.58184925 C12.1160069,5.58184925 13.0125628,6.35534853 13.3641534,6.95305251 L13.3993125,6.95305251 L13.3993125,5.9158603 L16.3175143,5.9158603 L16.3175143,15.6724988 L13.3993125,15.6724988 L13.3993125,14.6177271 L13.3641534,14.6177271 C12.8719266,15.5670217 11.6589391,16.0065099 10.5162697,16.0065099 C7.42227265,16.0065099 5.61158117,13.5805349 5.61158117,10.7853898 C5.61158117,7.58591555 7.91449946,5.58184925 10.5162697,5.58184925 Z M10.9381784,8.30667624 C9.26812318,8.30667624 8.52978297,9.71303855 8.52978297,10.8205489 C8.52978297,11.7346844 9.19780507,13.2816829 10.955758,13.2816829 C12.784029,13.2816829 13.3993125,11.7346844 13.3993125,10.7853898 C13.3993125,9.60756137 12.5906541,8.30667624 10.9381784,8.30667624 Z" id="Combined-Shape" fill="#FFFFFF"></path>
                            </g>
                        </g>
                    </g>
                </g>
            </g>
        </g>
    </g>
</svg>