<?xml version="1.0" encoding="UTF-8"?>
<svg width="25px" height="29px" viewBox="0 0 25 29" version="1.1" xmlns="http://www.w3.org/2000/svg" xmlns:xlink="http://www.w3.org/1999/xlink">
    <title>03</title>
    <g id="Add-Bill-/-Document" stroke="none" stroke-width="1" fill="none" fill-rule="evenodd">
        <g id="Artboard" transform="translate(-683, -306)" fill="#FFFFFF">
            <g id="03" transform="translate(683.5, 306.5124)">
                <path d="M21.2194098,0 L3.03134426,0 C0.80709743,0 0,1.81250136 0,3.03134426 L0,27.2820983 C0,27.840383 0.452163393,28.2925464 1.01044809,28.2925464 L23.240306,28.2925464 C23.7985907,28.2925464 24.2507541,27.840383 24.2507541,27.2820983 L24.2507541,3.03134426 C24.2507541,0.80709743 22.4382527,0 21.2194098,0 Z M14.1462732,26.2716502 L10.1044809,26.2716502 L10.1044809,24.2520151 C10.1044809,23.1380001 11.0113621,22.2311189 12.125377,22.2311189 C13.239392,22.2311189 14.1462732,23.1380001 14.1462732,24.2520151 L14.1462732,26.2716502 Z M22.2298902,26.2716502 L16.1671694,26.2716502 L16.1671694,24.2520151 C16.1671694,22.0227241 14.354668,20.2102228 12.125377,20.2102228 C9.89608605,20.2102228 8.08358469,22.0227241 8.08358469,24.2520151 L8.08358469,26.2716502 L2.02089617,26.2716502 L2.02089617,3.04395465 C2.03352597,2.57662645 2.21793517,2.02086384 3.03134426,2.02086384 L21.2067994,2.02086384 C21.6741276,2.03349363 22.2298902,2.21790283 22.2298902,3.03131193 L22.2298902,26.2716502 Z M4.04179235,10.1044809 L10.1044809,10.1044809 L10.1044809,4.04179235 L4.04179235,4.04179235 L4.04179235,10.1044809 Z M5.65273453,5.65273453 L8.49353868,5.65273453 L8.49353868,8.49353868 L5.65273453,8.49353868 L5.65273453,5.65273453 Z M14.0417923,10.1044809 L20.1044809,10.1044809 L20.1044809,4.04179235 L14.0417923,4.04179235 L14.0417923,10.1044809 Z M15.6527345,5.65273453 L18.4935387,5.65273453 L18.4935387,8.49353868 L15.6527345,8.49353868 L15.6527345,5.65273453 Z M14.0417923,18.1044809 L20.1044809,18.1044809 L20.1044809,12.0417923 L14.0417923,12.0417923 L14.0417923,18.1044809 Z M15.6527345,13.6527345 L18.4935387,13.6527345 L18.4935387,16.4935387 L15.6527345,16.4935387 L15.6527345,13.6527345 Z M4.04179235,18.1044809 L10.1044809,18.1044809 L10.1044809,12.0417923 L4.04179235,12.0417923 L4.04179235,18.1044809 Z M5.65273453,13.6527345 L8.49353868,13.6527345 L8.49353868,16.4935387 L5.65273453,16.4935387 L5.65273453,13.6527345 Z" id="Fill-1"></path>
            </g>
        </g>
    </g>
</svg>