<svg width="33" height="31" viewBox="0 0 33 31" xmlns="http://www.w3.org/2000/svg">
    <g fill="#000" fill-rule="evenodd">
        <path d="M32.229 11.248a.653.653 0 0 0 0-.142v-.024a.582.582 0 0 0-.045-.122v-.02L29.44 5.755a2.646 2.646 0 0 0-2.343-1.417h-4.584v-1.59A2.644 2.644 0 0 0 19.87.103h-6.774a2.644 2.644 0 0 0-2.644 2.643v1.59H6.408a2.644 2.644 0 0 0-2.24 1.253L.834 10.894v.023a.714.714 0 0 0-.052.115v.044a.666.666 0 0 0-.02.125v1.709a3.18 3.18 0 0 0 2.241 3.033V27.599a3.304 3.304 0 0 0 3.305 3.305H26.69a3.304 3.304 0 0 0 3.305-3.305V15.956v.001a3.186 3.186 0 0 0 2.24-3.033l-.007-1.676zm-20.455-8.5c0-.73.591-1.323 1.322-1.323h6.774a1.32 1.32 0 0 1 1.322 1.322v4.627h-9.418V2.747zM5.288 6.28c.241-.386.664-.62 1.12-.62h4.044v2.374a.66.66 0 0 0 .661.661h10.74a.66.66 0 0 0 .661-.66V5.658h4.584c.49 0 .94.273 1.17.708l2.207 4.217-27.871-.001L5.288 6.28zm20.594 6.643v.559-.001a2.691 2.691 0 0 1-5.384 0v-1.573h5.38l.004 1.015zm-6.709.558a2.691 2.691 0 0 1-5.383 0v-1.573h5.383v1.573zm-6.705 0a2.696 2.696 0 0 1-2.692 2.6c-1.45 0-2.64-1.15-2.692-2.6v-1.573h5.387l-.003 1.573zM2.06 12.923v-1.015h3.707v1.015a1.854 1.854 0 0 1-3.707 0zm11.965 16.658v-5.549a2.458 2.458 0 0 1 4.918 0v5.55h-4.918zm12.666 0h-6.426v-5.549a3.781 3.781 0 0 0-7.562 0v5.55H6.275a1.983 1.983 0 0 1-1.982-1.983V16.07c.7-.084 1.354-.4 1.853-.898a4.006 4.006 0 0 0 6.986.506 4.008 4.008 0 0 0 6.705 0 4.008 4.008 0 0 0 6.984-.506c.5.497 1.153.812 1.854.896v11.53a1.983 1.983 0 0 1-1.983 1.982h-.002zm4.217-16.658a1.854 1.854 0 0 1-3.707 0v-1.015h3.707v1.015z"/>
        <path d="M8.552 20.253a2.527 2.527 0 0 0-2.525 2.52V25.3a.66.66 0 0 0 .661.66h3.728a.66.66 0 0 0 .661-.66v-2.525a2.527 2.527 0 0 0-2.525-2.521zm1.203 4.388H7.35v-1.867a1.203 1.203 0 1 1 2.406 0v1.867zM24.626 20.253h-.423a2.313 2.313 0 0 0-2.314 2.313v2.736a.66.66 0 0 0 .661.66h3.728a.66.66 0 0 0 .661-.66v-2.736a2.311 2.311 0 0 0-2.313-2.313zm.991 4.388h-2.406v-2.075c0-.548.444-.992.992-.992h.423c.547 0 .991.444.991.992v2.075zM18.426 3.573h-3.883a.661.661 0 0 0 0 1.322h3.883a.66.66 0 1 0 0-1.322z"/>
    </g>
</svg>
