<?xml version="1.0" encoding="UTF-8"?>
<svg width="20px" height="20px" viewBox="0 0 20 20" version="1.1" xmlns="http://www.w3.org/2000/svg" xmlns:xlink="http://www.w3.org/1999/xlink">
    <title>Group 3</title>
    <g id="TaskBox" stroke="none" stroke-width="1" fill="none" fill-rule="evenodd">
        <g id="Group-3" transform="translate(0.3787, 0.6563)" fill="#FFFFFF" stroke="#3C3C3C" stroke-width="0.4">
            <path d="M0.949033597,6.64996783 L2.84882799,6.64996783 L2.84882799,14.2500575 L1.89936402,14.2500575 C0.642631328,14.2500575 0.64440982,16.1498518 1.89936402,16.1498518 L17.1004553,16.1498518 C18.357188,16.1498518 18.3554095,14.2500575 17.1004553,14.2500575 L16.1501021,14.2500575 L16.1501021,6.64996783 L18.0498965,6.64996783 C19.0287512,6.64996783 19.3627429,5.34245691 18.5103663,4.86951482 L9.95992349,0.119572813 C9.67401948,-0.0398576043 9.3230865,-0.0398576043 9.03718249,0.119572813 L0.486739654,4.86951482 C-0.363858627,5.34245691 -0.0298441282,6.64996783 0.948987995,6.64996783 L0.949033597,6.64996783 Z M4.74953443,14.2500575 L4.74953443,6.64996783 L6.64932882,6.64996783 L6.64932882,14.2500575 L4.74953443,14.2500575 Z M8.54912322,14.2500575 L8.54912322,6.64996783 L10.4489176,6.64996783 L10.4489176,14.2500575 L8.54912322,14.2500575 Z M14.2494184,14.2500575 L12.3496241,14.2500575 L12.3496241,6.64996783 L14.2494184,6.64996783 L14.2494184,14.2500575 Z M9.49947644,2.03637689 L14.3839454,4.75017344 L4.61500746,4.75017344 L9.49947644,2.03637689 Z" id="Fill-1"></path>
            <path d="M18.0499193,17.1002051 L0.949033597,17.1002051 C-0.307699091,17.1002051 -0.305920599,19 0.949033597,19 L18.0499193,19 C19.306652,19.0008905 19.3048735,17.1002051 18.0499193,17.1002051 Z" id="Fill-2"></path>
        </g>
    </g>
</svg>