<?xml version="1.0" encoding="UTF-8"?>
<svg width="18px" height="15px" viewBox="0 0 18 15" version="1.1" xmlns="http://www.w3.org/2000/svg" xmlns:xlink="http://www.w3.org/1999/xlink">
    <title>Group 4</title>
    <g id="TaskBox" stroke="none" stroke-width="1" fill="none" fill-rule="evenodd">
        <g id="Group-4" transform="translate(0, 0.8)" fill="#000000">
            <path d="M2.6625,6.434375 C2.29502175,6.434375 1.996875,6.73252175 1.996875,7.1 C1.996875,7.46747825 2.29502175,7.765625 2.6625,7.765625 L7.9875,7.765625 C8.35497825,7.765625 8.653125,7.46747825 8.653125,7.1 C8.653125,6.73252175 8.35497825,6.434375 7.9875,6.434375 L2.6625,6.434375 Z" id="Fill-1"></path>
            <path d="M9.984375,7.1 C9.984375,6.73252175 10.2825218,6.434375 10.65,6.434375 L12.425,6.434375 C12.7924783,6.434375 13.090625,6.73252175 13.090625,7.1 C13.090625,7.46747825 12.7924783,7.765625 12.425,7.765625 L10.65,7.765625 C10.2825218,7.765625 9.984375,7.46747825 9.984375,7.1 Z" id="Fill-2"></path>
            <path d="M0,2.6625 C0,1.191877 1.191877,0 2.6625,0 L15.0875,0 C16.558123,0 17.75,1.191877 17.75,2.6625 L17.75,11.5375 C17.75,13.008123 16.558123,14.2 15.0875,14.2 L2.6625,14.2 C1.191877,14.2 0,13.008123 0,11.5375 L0,2.6625 Z M2.6625,1.33125 L15.0875,1.33125 C15.8224565,1.33125 16.41875,1.9275435 16.41875,2.6625 L16.41875,2.884375 L1.33125,2.884375 L1.33125,2.6625 C1.33125,1.9275435 1.9275435,1.33125 2.6625,1.33125 Z M1.33125,4.215625 L1.33125,11.5375 C1.33125,12.2724565 1.9275435,12.86875 2.6625,12.86875 L15.0875,12.86875 C15.8224565,12.86875 16.41875,12.2724565 16.41875,11.5375 L16.41875,4.215625 L1.33125,4.215625 Z" id="Fill-3"></path>
        </g>
    </g>
</svg>