<svg width="24" height="23" viewBox="0 0 24 23" xmlns="http://www.w3.org/2000/svg" xmlns:xlink="http://www.w3.org/1999/xlink">
    <defs>
        <path d="M14.761.765a6.48 6.48 0 0 1 2.666 2.665l5.23 9.8a6.48 6.48 0 0 1-2.289 8.55 3.042 3.042 0 0 0-.53-.39 47.386 47.386 0 0 0-4.436-2.214c-1.053-.465-1.204-.798-.46-1.694 1.2-1.44 1.802-3.075 1.66-4.965-.196-2.625-1.866-4.437-4.373-4.74-2.36-.284-4.47 1.097-5.15 3.437-.647 2.228-.182 4.255 1.243 6.072.96 1.224.881 1.454-.632 1.983-1.687.592-3.304 1.32-4.635 2.512A6.48 6.48 0 0 1 .763 13.23l5.23-9.8A6.48 6.48 0 0 1 14.761.765z" id="fjagbonc9a"/>
    </defs>
    <use fill="#FFF" xlink:href="#fjagbonc9a" transform="translate(.405 .61)" fill-rule="evenodd"/>
</svg>
