<svg width="90" height="23" viewBox="0 0 90 23" xmlns="http://www.w3.org/2000/svg" xmlns:xlink="http://www.w3.org/1999/xlink">
    <defs>
        <path d="M14.761.765a6.48 6.48 0 0 1 2.666 2.665l5.23 9.8a6.48 6.48 0 0 1-2.289 8.55 3.042 3.042 0 0 0-.53-.39 47.386 47.386 0 0 0-4.436-2.214c-1.053-.465-1.204-.798-.46-1.694 1.2-1.44 1.802-3.075 1.66-4.965-.196-2.625-1.866-4.437-4.373-4.74-2.36-.284-4.47 1.097-5.15 3.437-.647 2.228-.182 4.255 1.243 6.072.96 1.224.881 1.454-.632 1.983-1.687.592-3.304 1.32-4.635 2.512A6.48 6.48 0 0 1 .763 13.23l5.23-9.8A6.48 6.48 0 0 1 14.761.765z" id="wwnlgm6zda"/>
    </defs>
    <g fill="none" fill-rule="evenodd">
        <g fill="#FFF">
            <path d="M69.552 17.146h-1.356v-.172l-.001-4.878c0-.52-.006-1.04-.16-1.541-.26-.841-.774-1.447-1.657-1.66-.743-.18-1.407.023-1.996.495-.466.374-.694.88-.763 1.456-.056.461-.09.928-.093 1.392-.012 1.578-.005 3.155-.005 4.733 0 .181 0 .181-.176.181-.343 0-.686-.005-1.03.003-.125.004-.152-.038-.152-.156.004-1.621.01-3.243-.002-4.865a10.79 10.79 0 0 0-.106-1.403c-.134-.96-.921-1.724-1.877-1.864-.78-.114-1.444.107-1.974.694a2.277 2.277 0 0 0-.567 1.227c-.064.455-.107.917-.11 1.376-.014 1.6-.006 3.2-.006 4.799v.179h-1.35c-.003-.05-.007-.097-.007-.144 0-1.661-.002-3.322.002-4.984 0-.606.03-1.212.18-1.804.305-1.19 1.044-2.004 2.178-2.447 1.388-.541 3.13-.248 4.222 1.225.028.038.059.075.103.13l.115-.146c.514-.684 1.166-1.173 2.01-1.355 1.258-.27 2.391-.007 3.36.86.688.616 1.055 1.397 1.137 2.307a18.4 18.4 0 0 1 .078 1.539c.01 1.555.003 3.111.003 4.667v.156zM51.516 10.217c-.172-.146-.328-.287-.492-.417-.557-.444-1.169-.778-1.88-.905-.96-.171-1.848.01-2.642.576-.794.567-1.275 1.346-1.453 2.303a3.582 3.582 0 0 0 2.296 4.02c1.899.693 4.063-.46 4.535-2.42.127-.529.16-1.07.162-1.61.006-2.505.005-5.01.006-7.516v-.183h1.356v.133c-.001 2.457.003 4.914-.005 7.37-.002.81-.053 1.619-.307 2.396-.508 1.552-1.553 2.594-3.097 3.1-1.489.489-2.915.287-4.22-.581-1.08-.719-1.782-1.725-2.057-2.999-.33-1.538-.016-2.944.971-4.174a4.666 4.666 0 0 1 2.732-1.676 5.065 5.065 0 0 1 2.642.116c.512.163.97.43 1.396.755.036.028.07.084.071.127.004.51.002 1.02.001 1.53 0 .012-.006.024-.015.055M39.334 14.76c0 .462-.002.924.002 1.385.001.095-.033.152-.106.207-1.029.78-2.19 1.062-3.463.93-1.308-.137-2.389-.714-3.237-1.71a4.661 4.661 0 0 1-1.058-2.279c-.187-1.102-.047-2.157.483-3.143.714-1.33 1.807-2.211 3.293-2.51 1.978-.398 3.629.211 4.895 1.785.484.6.757 1.312.9 2.07.115.606.156 1.22.158 1.835.004 1.218 0 2.435.005 3.652 0 .12-.03.16-.154.158a23.32 23.32 0 0 0-1.042 0c-.125.002-.165-.03-.165-.16.005-1.205.014-2.41-.003-3.613a11.286 11.286 0 0 0-.113-1.614c-.215-1.353-1.008-2.262-2.287-2.717-1.815-.645-3.755.306-4.434 2.14-.697 1.882.32 4.034 2.22 4.65 1.066.347 2.088.177 3.033-.408.334-.207.63-.474.944-.713.035-.027.066-.057.122-.105.003.075.007.118.007.16zM81.611 17.152c-.003-.06-.007-.094-.007-.13.001-1.612-.004-3.225.006-4.838.003-.598.056-1.193.222-1.773a3.83 3.83 0 0 1 1.239-1.903c.978-.829 2.117-1.13 3.37-.94 1.417.215 2.46.984 3.1 2.272.307.62.415 1.298.422 1.982.017 1.74.011 3.48.014 5.22 0 .03-.005.06-.01.1h-1.32V12.37c0-.52-.032-1.037-.185-1.538-.306-1.003-.981-1.642-1.983-1.91-1.198-.318-2.507.253-3.119 1.33-.25.44-.343.928-.386 1.425-.02.25-.025.5-.026.75-.002 1.521-.003 3.042.003 4.562 0 .139-.041.17-.17.166-.34-.008-.678-.003-1.017-.003h-.153zM72.598 17.146h1.333V7.683h-1.333zM77.224 17.142h1.335v-9.46h-1.335zM78.804 5.425a.909.909 0 0 1-.91.903.91.91 0 0 1-.915-.94.892.892 0 0 1 .935-.886c.498.012.9.428.89.923M74.177 4.348a.911.911 0 0 1-.902.924.91.91 0 0 1-.924-.918c-.004-.511.39-.904.913-.908a.916.916 0 0 1 .913.902"/>
        </g>
        <use fill="#FFF" xlink:href="#wwnlgm6zda" transform="translate(.922 .388)"/>
    </g>
</svg>
