<svg width="13" height="16" viewBox="0 0 13 16" xmlns="http://www.w3.org/2000/svg">
    <g fill="#000" fill-rule="nonzero">
        <path d="M9.527.007h.112c.09 1.107-.333 1.934-.847 2.534-.504.595-1.194 1.172-2.31 1.084-.074-1.091.349-1.857.862-2.455C7.819.613 8.692.117 9.527.007zM12.906 11.531v.031a9.135 9.135 0 0 1-1.307 2.52c-.499.686-1.11 1.61-2.2 1.61-.942 0-1.569-.607-2.534-.623-1.022-.017-1.584.507-2.518.638h-.319c-.686-.099-1.24-.642-1.643-1.132A9.918 9.918 0 0 1 .106 8.87v-.703c.072-1.711.904-3.102 2.01-3.777.582-.358 1.384-.664 2.277-.527.383.06.774.19 1.116.32.325.125.731.346 1.116.334.26-.007.52-.143.782-.24.77-.277 1.524-.595 2.518-.446 1.195.18 2.043.712 2.567 1.53-1.011.644-1.81 1.613-1.674 3.269.122 1.503.996 2.383 2.088 2.901z"/>
    </g>
</svg>
