<svg width="74" height="26" viewBox="0 0 74 26" fill="none" xmlns="http://www.w3.org/2000/svg">
<path fill-rule="evenodd" clip-rule="evenodd" d="M20.4511 8.63683C16.5869 11.118 16.9463 16.6159 21.1369 18.5656C20.9475 19.0411 20.7721 19.5276 20.5627 19.9989C19.9212 21.4424 19.0605 22.7478 18.0155 23.9259C17.2586 24.7792 16.3389 25.3485 15.1511 25.1892C14.6218 25.1183 14.0915 24.9428 13.5996 24.7272C12.4901 24.2408 11.3609 24.0572 10.1842 24.3779C9.7181 24.5048 9.26988 24.7026 8.82034 24.8851C7.21714 25.5361 6.14284 25.3545 4.95206 24.0925C2.86332 21.8788 1.55334 19.2475 0.963548 16.2581C0.591572 14.3726 0.537986 12.4869 1.18623 10.6497C1.99371 8.36162 3.54194 6.86062 5.94629 6.32472C7.15702 6.05482 8.31159 6.29988 9.38658 6.82468C10.5432 7.38926 11.6207 7.36226 12.7706 6.81261C14.178 6.13995 15.6629 5.93989 17.198 6.36533C18.541 6.7376 19.6331 7.46469 20.4511 8.63683" fill="white"/>
<path fill-rule="evenodd" clip-rule="evenodd" d="M40.3523 16.0677L40.4374 16.0811C40.4374 16.3369 40.4394 16.5927 40.4371 16.8484C40.4243 18.2874 41.3095 19.4309 42.6704 19.7318C44.0134 20.0288 45.311 19.375 45.8773 18.0615C46.4491 16.7353 46.4698 15.3743 45.9539 14.0237C45.642 13.2074 45.095 12.5915 44.2498 12.3003C42.7681 11.7896 41.1707 12.5759 40.6683 14.1264C40.4686 14.7427 40.4522 15.4188 40.3523 16.0677V16.0677ZM38.6105 10.9271H40.1748C40.2044 11.4828 40.2331 12.0233 40.2662 12.6454C40.3696 12.5156 40.4312 12.4447 40.4859 12.3688C42.1288 10.0906 45.5227 10.1069 47.1421 12.4026C47.8511 13.4077 48.1207 14.5505 48.1256 15.7586C48.1314 17.2227 47.8267 18.599 46.8479 19.75C45.6933 21.1078 43.69 21.6038 42.0379 20.9463C41.4005 20.6926 40.8888 20.2772 40.4463 19.6372V25.1074H38.6105V10.9271Z" fill="white"/>
<path fill-rule="evenodd" clip-rule="evenodd" d="M51.7528 16.0665C51.7801 16.0707 51.8072 16.0749 51.8345 16.079C51.8345 16.3348 51.8364 16.5906 51.8341 16.8463C51.8212 18.288 52.703 19.4289 54.0648 19.731C55.4085 20.029 56.7068 19.3771 57.2722 18.0631C57.8532 16.7129 57.8771 15.3278 57.3238 13.9617C56.8269 12.7347 55.8272 12.1052 54.5544 12.1545C53.4582 12.1969 52.4025 12.9945 52.0551 14.1575C51.8724 14.7691 51.8484 15.4286 51.7528 16.0665V16.0665ZM51.5679 10.9306C51.599 11.4988 51.6285 12.0374 51.6619 12.6482C51.7555 12.5285 51.8042 12.4704 51.8484 12.409C53.6094 9.96267 57.1957 10.116 58.7333 12.7104C59.5088 14.019 59.6359 15.4488 59.4398 16.9226C59.2623 18.2569 58.7621 19.445 57.6739 20.2862C56.3386 21.3184 54.8594 21.5134 53.29 20.8811C52.7075 20.6464 52.2556 20.234 51.8403 19.6353V25.1152H50.0091V10.9306H51.5679Z" fill="white"/>
<path fill-rule="evenodd" clip-rule="evenodd" d="M33.3774 15.1469C32.6695 12.9622 31.9686 10.799 31.2898 8.70396C30.6248 10.8019 29.938 12.9687 29.2477 15.1469H33.3774ZM25.5227 21.0062C25.567 20.8527 25.5967 20.7321 25.6363 20.6149C27.141 16.1654 28.6485 11.7168 30.1466 7.26492C30.2268 7.0267 30.3337 6.93877 30.5857 6.94812C31.1176 6.9678 31.6512 6.94191 32.1829 6.96417C32.295 6.96885 32.468 7.07735 32.502 7.17637C34.061 11.73 35.6077 16.2878 37.1548 20.8455C37.1654 20.8767 37.1623 20.9126 37.1711 21.0031C36.5687 21.0031 35.9748 21.013 35.3821 20.9903C35.3099 20.9875 35.217 20.8191 35.18 20.7114C34.7504 19.4611 34.3217 18.2103 33.9131 16.9529C33.8246 16.6804 33.7129 16.5713 33.4099 16.5753C31.9861 16.5937 30.5618 16.5896 29.1378 16.5775C28.8991 16.5755 28.7936 16.6491 28.7204 16.8762C28.3082 18.1566 27.8745 19.43 27.4631 20.7107C27.3912 20.9347 27.2983 21.0233 27.0547 21.0127C26.559 20.991 26.0617 21.0062 25.5227 21.0062V21.0062Z" fill="white"/>
<path fill-rule="evenodd" clip-rule="evenodd" d="M72.2826 14.9494C72.2528 14.6733 72.2445 14.4198 72.1956 14.1746C71.9936 13.1623 71.5145 12.3645 70.4498 12.0892C68.6918 11.6346 66.9942 13.0317 66.9731 14.9494H72.2826ZM66.9474 16.2866C66.8797 18.1814 68.003 19.5876 69.8494 19.7578C70.8974 19.8545 71.9304 19.7515 72.9205 19.3576C72.9824 19.3331 73.0485 19.3192 73.138 19.293C73.2416 19.7279 73.3402 20.1413 73.463 20.6567C72.7884 20.8137 72.1364 21.0024 71.4714 21.1113C70.5416 21.2636 69.6039 21.2785 68.6784 21.0443C66.8619 20.5848 65.7509 19.4116 65.3348 17.6017C65.0005 16.1471 65.1209 14.7093 65.7511 13.3434C66.7405 11.1989 69.0427 10.1784 71.2586 10.8955C72.7629 11.3823 73.5182 12.5367 73.847 13.9973C73.9853 14.6117 73.9618 15.2635 74.0063 15.8986C74.0261 16.1808 73.9197 16.2932 73.605 16.291C71.5207 16.2762 69.4362 16.2853 67.3517 16.2866C67.2257 16.2867 67.0997 16.2866 66.9474 16.2866V16.2866Z" fill="white"/>
<path fill-rule="evenodd" clip-rule="evenodd" d="M61.4485 20.9911H63.2163V6.23779H61.4485V20.9911Z" fill="white"/>
<path fill-rule="evenodd" clip-rule="evenodd" d="M15.8755 0.109274C16.2836 2.81675 13.7112 6.09968 10.9144 5.84911C10.3117 3.47092 13.399 -0.100968 15.8755 0.109274" fill="white"/>
</svg>
