<svg width="15" height="13" viewBox="0 0 15 13" xmlns="http://www.w3.org/2000/svg">
    <path d="M9.946 7.494a2.38 2.38 0 0 1-2.377 2.377 2.38 2.38 0 0 1-2.377-2.377A2.38 2.38 0 0 1 7.57 5.118a2.38 2.38 0 0 1 2.377 2.376zm4.992-3.375v6.751c0 .9-.73 1.63-1.63 1.63H1.83c-.9 0-1.63-.73-1.63-1.63V4.12c0-.9.73-1.63 1.63-1.63h2.004v-.564C3.834 1.138 4.472.5 5.26.5h4.618c.788 0 1.426.638 1.426 1.426v.563h2.004c.9 0 1.63.73 1.63 1.63zm-3.77 3.375c0-1.984-1.615-3.599-3.6-3.599a3.603 3.603 0 0 0-3.598 3.6c0 1.984 1.615 3.599 3.599 3.599 1.984 0 3.599-1.615 3.599-3.6z" fill="#000" fill-rule="nonzero"/>
</svg>
