<svg width="16" height="16" viewBox="0 0 16 16" xmlns="http://www.w3.org/2000/svg">
    <g fill="#FFF" fill-rule="evenodd">
        <path d="M.301 2.334c0-.92.746-1.667 1.666-1.667h11.668c.92 0 1.666.747 1.666 1.667v3.333c0 .92-.746 1.667-1.666 1.667H1.967c-.92 0-1.666-.746-1.666-1.667V2.334zm1.666 0h11.668v3.333H1.967V2.334zM.301 10.667c0-.92.746-1.666 1.666-1.666h11.668c.92 0 1.666.746 1.666 1.666v3.334c0 .92-.746 1.666-1.666 1.666H1.967c-.92 0-1.666-.746-1.666-1.666v-3.334zm1.666 0h11.668v3.334H1.967v-3.334z"/>
    </g>
</svg>
