<svg width="23" height="23" viewBox="0 0 23 23" xmlns="http://www.w3.org/2000/svg">
    <g fill="#000" fill-rule="evenodd">
        <path d="M22.484 4.225A4.121 4.121 0 0 0 18.362.103H4.622A4.121 4.121 0 0 0 .5 4.225v10.648a4.121 4.121 0 0 0 4.122 4.122H6.92l2.061 2.061a3.576 3.576 0 0 0 5.056 0l2.061-2.06h2.264a4.121 4.121 0 0 0 4.122-4.123V4.225zm-2.748 10.648a1.373 1.373 0 0 1-1.374 1.374h-2.583c-.546 0-1.07.218-1.457.605l-2.244 2.244.002-.002a.827.827 0 0 1-1.176 0l-2.243-2.243.001.001a2.057 2.057 0 0 0-1.457-.605H4.622c-.76 0-1.374-.614-1.374-1.374V4.225c0-.76.615-1.374 1.374-1.374h13.74a1.373 1.373 0 0 1 1.374 1.374v10.648z"/>
        <path d="M16.3 8.446a3.864 3.864 0 0 0-5.46 0l-.605.605a1.136 1.136 0 0 1-1.573 0l-.645-.645h-.001a1.373 1.373 0 1 0-1.944 1.943l.646.646a3.864 3.864 0 0 0 5.46 0l.589-.587a1.136 1.136 0 0 1 1.572 0l.646.645A1.373 1.373 0 1 0 16.93 9.11l-.628-.663z"/>
    </g>
</svg>
