<svg width="18" height="18" viewBox="0 0 18 18" xmlns="http://www.w3.org/2000/svg">
    <g transform="translate(.031 .542)" fill="none" fill-rule="evenodd">
        <circle fill="#96F775" cx="8.535" cy="8.535" r="8.535"/>
        <path d="M12.802 5.932a.8.8 0 0 0-.262-.543.72.72 0 0 0-.565-.192.758.758 0 0 0-.534.262l-4.03 4.534L5.568 8.32a.766.766 0 0 0-.564-.201.748.748 0 0 0-.534.251.766.766 0 0 0-.201.565c.01.211.1.403.251.534l2.429 2.206c.14.131.332.201.523.201h.05c.202-.01.394-.1.545-.262l4.553-5.127a.832.832 0 0 0 .182-.555z" fill="#FFF"/>
    </g>
</svg>