<?xml version="1.0" encoding="UTF-8"?>
<svg width="18px" height="19px" viewBox="0 0 18 19" version="1.1" xmlns="http://www.w3.org/2000/svg" xmlns:xlink="http://www.w3.org/1999/xlink">
    <title>Group 4</title>
    <g id="Symbols" stroke="none" stroke-width="1" fill="none" fill-rule="evenodd">
        <g id="Left-Menu" transform="translate(-36, -335)" fill="#FFFFFF">
            <g id="Group-4" transform="translate(36.4293, 335.4329)">
                <path d="M12.4859789,7.78516 C13.1625389,6.77656 13.4484789,5.55696 13.2914389,4.35316 C13.1344069,3.14926 12.5445589,2.04376 11.6328389,1.24296 C10.7203389,0.4414 9.54763892,0 8.33363892,0 C7.11963892,0 5.94683892,0.4414 5.03443892,1.24296 C4.12271892,2.04374 3.53287892,3.1492 3.37583892,4.35316 C3.21880692,5.55706 3.50474492,6.77656 4.18129892,7.78516 C2.90785892,8.51016 1.84929892,9.56094 1.11489892,10.82896 C0.380518924,12.09772 -0.00386107555,13.53836 2.9239376e-05,15.00396 C0.00162152445,15.88756 0.352398924,16.73442 0.977398924,17.3593604 C1.60239892,17.9843004 2.45005892,18.3359204 3.33359892,18.3367004 L13.3335989,18.3367004 C14.2171989,18.3359192 15.0648389,17.9843604 15.6897989,17.3593604 C16.3147589,16.73436 16.6655789,15.88748 16.6671684,15.00396 C16.6710449,13.53834 16.2866789,12.09776 15.5522989,10.82896 C14.8179189,9.561 13.7593389,8.51016 12.4858989,7.78516 L12.4859789,7.78516 Z M8.33357892,1.67036 C9.21795892,1.67036 10.0656189,2.02192 10.6905789,2.64692 C11.3155389,3.27192 11.6671389,4.11958 11.6671389,5.00392 C11.6671389,5.88752 11.3155789,6.73596 10.6905789,7.36092 C10.0655789,7.98588 9.21791892,8.3367 8.33357892,8.3367 C7.44923892,8.3367 6.60153892,7.98592 5.97657892,7.36092 C5.35161892,6.73592 5.00001892,5.88748 5.00001892,5.00392 C5.00158092,4.11954 5.35313892,3.27268 5.97735892,2.64772 C6.60235892,2.02272 7.45001892,1.67116 8.33355892,1.67036 L8.33357892,1.67036 Z M13.3335789,16.67036 L3.33357892,16.67036 C2.41325892,16.66958 1.66795892,15.92348 1.6671672,15.00396 C1.66483492,13.75942 2.01405892,12.53996 2.67421892,11.48596 C3.33437892,10.43128 4.27889892,9.5844 5.39921892,9.04296 C6.24999892,9.66718 7.27811892,10.0039 8.33361892,10.0039 C9.38911892,10.0039 10.4172189,9.66718 11.2680189,9.04296 C12.3883389,9.58436 13.3328189,10.43124 13.9930189,11.48596 C14.6531789,12.53986 15.0023989,13.75936 15.0000706,15.00396 C14.9992789,15.9235 14.2539589,16.66958 13.3336589,16.67036 L13.3335789,16.67036 Z" id="Fill-1" stroke="#000000" stroke-width="0.4"></path>
                <rect id="Rectangle" x="7.49963169" y="8.63035863" width="1.66793405" height="4.49883934" rx="0.833967025"></rect>
            </g>
        </g>
    </g>
</svg>