<?xml version="1.0" encoding="UTF-8"?>
<svg width="20px" height="19px" viewBox="0 0 20 19" version="1.1" xmlns="http://www.w3.org/2000/svg" xmlns:xlink="http://www.w3.org/1999/xlink">
    <title>Fill 1</title>
    <g id="Symbols" stroke="none" stroke-width="1" fill="none" fill-rule="evenodd">
        <g id="Left-Menu" transform="translate(-33, -285)" fill="#FFFFFF" stroke="#000000" stroke-width="0.5">
            <path d="M49.7056887,286.069511 L38.0594767,286.069511 C36.5151576,286.069511 35.2559998,287.326889 35.2559998,288.872988 L35.2559998,289.938783 L34.2632738,289.938783 C33.8248332,289.938783 33.4719405,290.292566 33.4719405,290.730117 C33.4719405,291.168558 33.8257229,291.521451 34.2632738,291.521451 L35.2559998,291.521451 L35.2559998,293.814375 L34.2632738,293.814375 C33.8248332,293.814375 33.4719405,294.169937 33.4719405,294.605709 C33.4719405,295.041481 33.8257229,295.397043 34.2632738,295.397043 L35.2559998,295.397043 L35.2559998,297.717571 L34.2632738,297.717571 C33.8248332,297.717571 33.4719405,298.073133 33.4719405,298.508904 C33.4719405,298.944676 33.8257229,299.300238 34.2632738,299.300238 L35.2559998,299.300238 L35.2559998,300.366034 C35.2559998,301.913022 36.5151576,303.169511 38.0594767,303.169511 L49.7056887,303.169511 C51.2526769,303.169511 52.5119031,301.912132 52.5119031,300.366034 L52.5119031,288.873125 C52.5119031,287.326136 51.2527453,286.069511 49.7056887,286.069511 L49.7056887,286.069511 Z M50.9283231,300.36681 C50.9283231,301.039608 50.382958,301.584973 49.7056887,301.584973 L38.0594767,301.584973 C37.3866787,301.584973 36.8413136,301.039608 36.8413136,300.36681 L36.8413136,288.872988 C36.8413136,288.20019 37.3866787,287.654825 38.0594767,287.654825 L49.7056887,287.654825 C50.3811558,287.654825 50.9283231,288.20019 50.9283231,288.872988 L50.9283231,300.368635 L50.9283231,300.36681 Z M46.0075812,294.556593 C46.5235405,294.022817 46.8381076,293.304553 46.8381076,292.506101 C46.8381076,290.877124 45.5129976,289.553884 43.8858906,289.553884 C42.259582,289.553884 40.936183,290.878994 40.936183,292.506101 C40.936183,293.300104 41.25075,294.021015 41.7667093,294.554813 C40.283871,295.282864 39.0932659,296.765703 38.5569347,298.681667 C38.4384149,299.10407 38.687039,299.539819 39.1067712,299.658332 C39.5291748,299.77507 39.9649239,299.528228 40.0834369,299.108496 C40.660877,297.032157 42.1909608,295.636601 43.8868031,295.636601 C45.5817329,295.636601 47.1127748,297.033001 47.6901693,299.108496 C47.788194,299.457807 48.1072118,299.685936 48.4520744,299.685936 C48.5224727,299.685936 48.593763,299.678807 48.6668373,299.656528 C49.086549,299.538008 49.3351867,299.102243 49.2166737,298.679862 C48.6802056,296.763944 47.489669,295.282794 46.0112336,294.555747 L46.0075812,294.556593 Z M43.8857993,293.872206 C43.1310118,293.872206 42.5196946,293.25644 42.5196946,292.506101 C42.5196946,291.755762 43.1310118,291.137327 43.8857993,291.137327 C44.6405868,291.137327 45.2545731,291.753093 45.2545731,292.506101 C45.2545731,293.259109 44.6388074,293.872206 43.8857993,293.872206 Z" id="Fill-1"></path>
        </g>
    </g>
</svg>