<svg width="172" height="33" viewBox="0 0 172 33" xmlns="http://www.w3.org/2000/svg">
    <g fill-rule="nonzero" fill="none">
        <path fill="#00579F" d="M18.352 22.802h-3.248l2.032-12.563h3.248zM30.128 10.546a8.006 8.006 0 0 0-2.913-.535c-3.208 0-5.467 1.71-5.481 4.156-.027 1.805 1.617 2.807 2.847 3.409 1.257.614 1.684 1.016 1.684 1.564-.013.841-1.016 1.23-1.95 1.23-1.298 0-1.993-.2-3.049-.669l-.428-.2-.454 2.82c.762.347 2.165.655 3.623.668 3.408 0 5.627-1.684 5.654-4.29.013-1.43-.855-2.526-2.727-3.422-1.136-.575-1.832-.962-1.832-1.55.013-.535.588-1.083 1.871-1.083a5.52 5.52 0 0 1 2.42.481l.294.134.441-2.713zM34.446 18.351c.268-.722 1.297-3.515 1.297-3.515-.014.027.267-.735.427-1.203l.227 1.083s.616 3.007.75 3.635h-2.701zm4.01-8.112h-2.513c-.775 0-1.363.227-1.698 1.042L29.42 22.8h3.409l.681-1.884h4.171c.093.441.388 1.885.388 1.885h3.008l-2.621-12.563zM12.39 10.239l-3.18 8.567-.348-1.738c-.589-2.005-2.433-4.183-4.492-5.266l2.914 10.987h3.436l5.106-12.55H12.39z"/>
        <path d="M6.255 10.239H1.03l-.054.253c4.077 1.043 6.777 3.556 7.887 6.577l-1.137-5.774c-.187-.803-.761-1.03-1.47-1.056z" fill="#FAA61A"/>
        <path d="M78.529 30.441v-1.858c0-.711-.434-1.177-1.177-1.177-.372 0-.776.123-1.054.527-.216-.34-.527-.527-.992-.527-.31 0-.621.094-.866.433v-.371h-.65v2.973h.65V28.8c0-.527.277-.776.71-.776.434 0 .65.278.65.776v1.642h.65V28.8c0-.527.31-.776.71-.776.434 0 .65.278.65.776v1.642h.719zm9.635-2.973h-1.053v-.899h-.65v.899h-.588v.588h.588v1.364c0 .682.278 1.083 1.021 1.083.278 0 .589-.094.805-.217l-.187-.56a1.04 1.04 0 0 1-.56.156c-.31 0-.433-.188-.433-.494v-1.332h1.054v-.588h.003zm5.515-.065a.88.88 0 0 0-.776.433v-.372h-.65v2.974h.65v-1.675c0-.494.217-.776.62-.776.123 0 .279.033.405.062l.188-.621c-.13-.025-.314-.025-.437-.025zm-8.333.31c-.31-.216-.744-.31-1.21-.31-.743 0-1.237.371-1.237.96 0 .494.372.776 1.021.866l.31.032c.34.062.528.155.528.31 0 .217-.25.372-.682.372-.434 0-.776-.155-.993-.31l-.31.494c.339.25.804.372 1.27.372.866 0 1.364-.404 1.364-.96 0-.527-.404-.805-1.021-.898l-.31-.033c-.278-.032-.495-.094-.495-.278 0-.216.217-.34.56-.34.371 0 .743.156.93.25l.275-.527zm17.283-.31a.88.88 0 0 0-.776.433v-.372h-.65v2.974h.65v-1.675c0-.494.217-.776.621-.776.123 0 .278.033.404.062l.188-.614c-.126-.032-.31-.032-.437-.032zm-8.3 1.552c0 .898.62 1.548 1.58 1.548.433 0 .744-.094 1.054-.34l-.31-.526c-.25.187-.495.278-.776.278-.527 0-.899-.372-.899-.96 0-.56.372-.932.899-.96.278 0 .527.093.776.277l.31-.526c-.31-.25-.62-.34-1.054-.34-.96-.003-1.58.65-1.58 1.549zm6.009 0v-1.487h-.65v.371c-.217-.278-.527-.433-.931-.433-.837 0-1.487.65-1.487 1.549 0 .898.65 1.548 1.487 1.548.433 0 .743-.155.93-.433v.371h.65v-1.486zm-2.386 0c0-.527.34-.96.899-.96.527 0 .898.404.898.96 0 .526-.371.96-.898.96-.556-.033-.899-.437-.899-.96zm-7.774-1.552c-.866 0-1.487.62-1.487 1.548 0 .931.621 1.548 1.52 1.548.433 0 .866-.123 1.209-.404l-.31-.466c-.25.188-.56.31-.867.31-.404 0-.805-.187-.898-.71h2.197v-.25c.03-.956-.53-1.576-1.364-1.576zm0 .56c.404 0 .682.248.744.71h-1.549c.062-.4.34-.71.805-.71zm16.14.992V26.29h-.65v1.548c-.217-.278-.527-.433-.931-.433-.837 0-1.487.65-1.487 1.549 0 .898.65 1.548 1.487 1.548.433 0 .743-.155.931-.433v.371h.65v-1.486zm-2.386 0c0-.527.34-.96.899-.96.527 0 .898.404.898.96 0 .526-.371.96-.898.96-.56-.033-.899-.437-.899-.96zm-21.748 0v-1.487h-.65v.371c-.216-.278-.526-.433-.93-.433-.838 0-1.487.65-1.487 1.549 0 .898.65 1.548 1.487 1.548.433 0 .743-.155.93-.433v.371h.65v-1.486zm-2.414 0c0-.527.34-.96.899-.96.527 0 .898.404.898.96 0 .526-.371.96-.898.96-.56-.033-.899-.437-.899-.96z" fill="#000"/>
        <path fill="#FF5A00" d="M85.13 4.883h9.758v17.532H85.13z"/>
        <path d="M85.779 13.649c0-3.562 1.675-6.724 4.244-8.766a11.092 11.092 0 0 0-6.879-2.386A11.145 11.145 0 0 0 71.993 13.65 11.145 11.145 0 0 0 83.144 24.8c2.602 0 4.988-.899 6.88-2.386a11.13 11.13 0 0 1-4.245-8.766z" fill="#EB001B"/>
        <path d="M108.053 13.649A11.145 11.145 0 0 1 96.902 24.8c-2.602 0-4.988-.899-6.879-2.386a11.09 11.09 0 0 0 4.244-8.766c0-3.562-1.674-6.724-4.244-8.766a11.074 11.074 0 0 1 6.875-2.386c6.168 0 11.155 5.02 11.155 11.152z" fill="#F79E1B"/>
        <path fill="#016FD0" d="M138.97.5h32v17.275l-1.584 2.474 1.584 2.203V32.5h-32V16.215l.99-1.138-.99-1.089z"/>
        <path d="M145.182 22.799v-5.024h5.319l.57.744.59-.744h19.309v4.677s-.505.342-1.09.347h-10.69l-.644-.792v.792h-2.109v-1.352s-.288.188-.91.188h-.718V22.8h-3.193l-.57-.76-.578.76h-5.286zM138.97 13.988l1.2-2.797h2.074l.68 1.567v-1.567h2.58l.405 1.133.392-1.133h11.577v.57s.608-.57 1.608-.57l3.756.014.67 1.546v-1.56h2.157l.594.888v-.888h2.178v5.024h-2.178l-.569-.89v.89h-3.17l-.32-.792h-.852l-.313.792h-2.15c-.861 0-1.411-.557-1.411-.557v.557h-3.242l-.644-.792v.792h-12.056l-.318-.792h-.85l-.316.792h-1.482v-2.227z" fill="#FFF"/>
        <path d="m140.594 11.81-1.618 3.763h1.053l.299-.754h1.735l.297.754h1.077l-1.617-3.762h-1.226zm.598.876.53 1.317h-1.06l.53-1.317zM143.548 15.572V11.81l1.497.006.87 2.425.85-2.43h1.485v3.76h-.94v-2.77l-.997 2.77h-.825l-1-2.77v2.77zM148.894 15.572V11.81h3.069v.842h-2.119v.643h2.07v.792h-2.07v.668h2.119v.817zM152.507 11.81v3.763h.94v-1.337h.397l1.127 1.337h1.15l-1.238-1.386a1.146 1.146 0 0 0 1.032-1.156c0-.791-.622-1.22-1.315-1.22h-2.093zm.94.842h1.076c.257 0 .445.202.445.396 0 .25-.243.396-.431.396h-1.09v-.792zM157.259 15.572h-.96V11.81h.96zM159.536 15.572h-.208c-1.002 0-1.611-.79-1.611-1.866 0-1.101.602-1.896 1.868-1.896h1.04v.891h-1.078c-.514 0-.877.401-.877 1.015 0 .728.415 1.034 1.014 1.034h.248l-.396.822zM161.582 11.81l-1.618 3.763h1.054l.298-.754h1.736l.297.754h1.076l-1.616-3.762h-1.227zm.599.876.529 1.317h-1.06l.53-1.317zM164.535 15.572V11.81h1.196l1.526 2.364V11.81h.94v3.762h-1.156l-1.566-2.425v2.425zM145.825 22.155v-3.762h3.069v.842h-2.119v.643h2.07v.792h-2.07v.668h2.119v.817zM160.862 22.155v-3.762h3.07v.842h-2.12v.643h2.06v.792h-2.06v.668h2.12v.817zM149.013 22.155l1.494-1.858-1.53-1.904h1.185l.911 1.177.914-1.177h1.139l-1.51 1.881 1.497 1.881h-1.185l-.884-1.158-.863 1.158zM153.225 18.394v3.762h.965v-1.188h.99c.838 0 1.473-.445 1.473-1.309 0-.716-.498-1.265-1.35-1.265h-2.078zm.965.85h1.043c.27 0 .464.166.464.434 0 .25-.193.433-.468.433h-1.039v-.866zM157.06 18.393v3.762h.941V20.82h.396l1.128 1.336h1.15l-1.238-1.386a1.146 1.146 0 0 0 1.031-1.155c0-.792-.62-1.22-1.314-1.22h-2.093zm.941.842h1.075c.258 0 .446.201.446.396 0 .25-.243.396-.432.396h-1.089v-.792zM164.367 22.155v-.817h1.882c.278 0 .399-.15.399-.315 0-.158-.12-.318-.4-.318h-.85c-.739 0-1.15-.45-1.15-1.127 0-.603.376-1.185 1.475-1.185h1.831l-.396.847h-1.584c-.302 0-.396.159-.396.31 0 .156.116.328.347.328h.89c.825 0 1.183.468 1.183 1.08 0 .658-.399 1.197-1.227 1.197h-2.004zM167.818 22.155v-.817h1.882c.279 0 .4-.15.4-.315 0-.158-.12-.318-.4-.318h-.85c-.74 0-1.151-.45-1.151-1.127 0-.603.377-1.185 1.476-1.185h1.831l-.396.847h-1.584c-.303 0-.396.159-.396.31 0 .156.115.328.347.328h.89c.825 0 1.182.468 1.182 1.08 0 .658-.398 1.197-1.226 1.197h-2.005z" fill="#016FD0"/>
    </g>
</svg>
