<?xml version="1.0" encoding="UTF-8"?>
<svg width="126px" height="31px" viewBox="0 0 126 31" version="1.1" xmlns="http://www.w3.org/2000/svg" xmlns:xlink="http://www.w3.org/1999/xlink">
    <title>Group 3</title>
    <defs>
        <path d="M20.665733,1.07033298 C22.2520682,1.91697515 23.551026,3.21593296 24.3976682,4.80226814 L31.7198809,18.5217403 C33.9824207,22.7610123 32.5381536,27.9895544 28.5167839,30.4915745 C28.2836952,30.2816115 28.0366089,30.0957653 27.7739747,29.9450714 C25.7722708,28.8002428 23.6814853,27.7787876 21.5631821,26.8464843 C20.0892991,26.1952198 19.8767738,25.7290681 20.918797,24.4745547 C22.598361,22.4588112 23.4415511,20.1693294 23.2427461,17.5231703 C22.9686218,13.8488169 20.6310192,11.3123426 17.1211053,10.8873271 C13.8168724,10.4896539 10.8621567,12.4229495 9.90928527,15.69977 C9.00435928,18.8190305 9.6556238,21.6571117 11.6505184,24.2004304 C12.9941837,25.9142863 12.8844989,26.2364613 10.7661956,26.9768425 C8.40425944,27.8056266 6.1394461,28.8235006 4.27632817,30.4939789 C1.70889297,28.8939431 -2.19404195e-14,26.0431685 -2.30926389e-14,22.7932605 C-2.30926389e-14,21.303276 0.366990424,19.8362272 1.06854458,18.5217403 L8.39075733,4.80226814 C10.7498528,0.382081765 16.2455466,-1.28876252 20.665733,1.07033298 Z" id="path-1"></path>
    </defs>
    <g id="Onboarding" stroke="none" stroke-width="1" fill="none" fill-rule="evenodd">
        <g id="Adding-Entity-to-account" transform="translate(-719, -50)">
            <g id="Group-3" transform="translate(719.6618, 50.0062)">
                <g id="Group-17" transform="translate(42.6595, 4.2813)" fill="#000000">
                    <path d="M53.4219816,19.180494 L51.5229768,19.180494 C51.5229768,19.094599 51.5230507,19.0166873 51.5229768,18.9387756 C51.522755,16.6623353 51.5231246,14.385895 51.5217941,12.1093807 C51.5213506,11.3825993 51.5136629,10.6536002 51.2970773,9.9519516 C50.9338344,8.7747756 50.214445,7.92698712 48.9785765,7.62798072 C47.937635,7.37613528 47.0077954,7.6608012 46.1835874,8.32179384 C45.5312434,8.84492568 45.2122046,9.55477944 45.1152216,10.3598422 C45.0373838,11.0054594 44.9894837,11.6583948 44.9848267,12.3085951 C44.9690078,14.5172508 44.9783218,16.7262022 44.9780261,18.9350057 C44.9779522,19.1884774 44.9776565,19.1886991 44.7316507,19.188773 C44.2513186,19.1889948 43.7709125,19.1807897 43.2910238,19.1931343 C43.1156117,19.1976434 43.0770994,19.1390988 43.077469,18.974405 C43.0821998,16.7041001 43.0914398,14.4336473 43.0739208,12.1634162 C43.0688203,11.5078937 43.0169285,10.8481577 42.9263026,10.1987705 C42.7388414,8.8560876 41.6364725,7.78520856 40.2982987,7.58924664 C39.2062046,7.42935768 38.2765867,7.73974776 37.5348734,8.56062936 C37.0949016,9.0475404 36.8306376,9.63535224 36.740677,10.2780866 C36.6514555,10.9154249 36.5912107,11.5620031 36.5859624,12.2051071 C36.5677781,14.4445135 36.57894,16.6841417 36.57894,18.9236959 L36.57894,19.1742108 L34.6879925,19.1742108 C34.6848139,19.1046521 34.6791221,19.0387154 34.6791221,18.9727049 C34.6787525,16.6471078 34.6755739,14.3213628 34.6807483,11.9956178 C34.6826702,11.1461292 34.7223653,10.298045 34.93422,9.46895832 C35.3598514,7.80294936 36.3951749,6.66428568 37.9831982,6.04431864 C39.9251506,5.28626904 42.3651758,5.69585976 43.8928066,7.75844952 C43.9326494,7.81218936 43.9757448,7.86341592 44.0370984,7.94066232 C44.097565,7.86459864 44.1499003,7.80169272 44.1989832,7.73642136 C44.9181509,6.77915736 45.8307672,6.09384504 47.0138568,5.83992984 C48.7742616,5.46197688 50.360363,5.8298028 51.717756,7.0443084 C52.6801944,7.90525464 53.1937166,8.9983836 53.3089579,10.2728383 C53.3736379,10.9885318 53.4124459,11.7087343 53.416955,12.4271628 C53.4306302,14.6051417 53.4219816,16.7831206 53.4219816,18.9611734 L53.4219816,19.180494 Z" id="Fill-4"></path>
                    <path d="M28.1719317,9.47914449 C27.9311743,9.27446001 27.7122232,9.07805457 27.4826277,8.89510257 C26.7024021,8.27343537 25.8460389,7.80633489 24.8514453,7.62863121 C23.507358,7.38846513 22.2639496,7.64186289 21.1521928,8.43524625 C20.0400664,9.22885137 19.3672466,10.3186539 19.1175448,11.6591192 C18.6685548,14.0689851 20.0313439,16.4454392 22.3321039,17.2862053 C24.9900453,18.257588 28.0196565,16.6436187 28.6805752,13.8985256 C28.8586485,13.1591039 28.9056616,12.4014239 28.9077314,11.6447048 C28.9168236,8.13757041 28.9143103,4.63036209 28.9160104,1.12315377 L28.9160104,0.866725293 L30.8139064,0.866725293 L30.8139064,1.05256017 C30.8131672,4.49213169 30.8185634,7.93162929 30.8081407,11.3711269 C30.8046664,12.5044683 30.7334076,13.6372184 30.3777784,14.7245816 C29.6668898,16.8984949 28.203052,18.3567147 26.0417791,19.0657554 C23.9574568,19.7496632 21.9606559,19.4663279 20.1335013,18.2510091 C18.621172,17.2451058 17.6390709,15.8371515 17.2548348,14.0535359 C16.7908389,11.9000245 17.2322892,9.93175665 18.6139279,8.20905105 C19.6010556,6.97828305 20.8893333,6.19554417 22.4379573,5.86305201 C23.6835832,5.59553553 24.9208562,5.63752209 26.1377272,6.02545425 C26.8538642,6.25379313 27.496229,6.62760657 28.091285,7.08258417 C28.1418463,7.12124433 28.1904117,7.20004305 28.1909292,7.26073137 C28.1971384,7.97435505 28.1941077,8.68812657 28.1927772,9.40182417 C28.1927032,9.41897361 28.1839068,9.43597521 28.1719317,9.47914449" id="Fill-6"></path>
                    <path d="M11.1164904,15.8404558 C11.1170078,16.4864426 11.1132379,17.1324295 11.1198168,17.7784164 C11.1212213,17.9110289 11.0731733,17.9910103 10.9707941,18.0686263 C9.5305368,19.1596855 7.90377936,19.5551575 6.12238128,19.3693226 C4.29190032,19.1783873 2.77875792,18.3713287 1.5911592,16.9751278 C0.807089762,16.0533454 0.313747682,14.9850535 0.110319842,13.786219 C-0.151504798,12.2434346 0.0446049621,10.7651825 0.785652962,9.38517 C1.78601232,7.52245992 3.31526928,6.28969608 5.39678256,5.87079144 C8.16575184,5.31358248 10.476565,6.16735848 12.2496101,8.37010056 C12.9261998,9.21064488 13.3083662,10.2068647 13.509059,11.2681342 C13.6696872,12.1173271 13.7277144,12.9757601 13.7303016,13.837889 C13.7355499,15.5421146 13.730893,17.2462663 13.737188,18.950418 C13.7377675,19.117625 13.6945982,19.1748391 13.5213298,19.1710692 C13.0352318,19.160129 12.5485426,19.160203 12.0624446,19.1709953 C11.8879195,19.1748391 11.8316664,19.1281956 11.8324056,18.9463524 C11.8389106,17.2606068 11.8511813,15.5746394 11.82834,13.8891895 C11.8180651,13.134762 11.7873144,12.3725729 11.6691163,11.6291594 C11.3680402,9.7351812 10.2580574,8.46309192 8.4683064,7.82649288 C5.92745424,6.92282088 3.21126384,8.25360264 2.26043088,10.8206225 C1.28394768,13.4567575 2.70749904,16.4695889 5.36691888,17.3328266 C6.860916,17.8177418 8.29067664,17.580163 9.6136968,16.7603902 C10.0813886,16.4706238 10.4974843,16.0976974 10.9365691,15.7618788 C10.9843954,15.7252884 11.0279342,15.6832279 11.1060677,15.6154433 C11.1110942,15.7203358 11.1164165,15.7803588 11.1164904,15.8404558 Z" id="Fill-8"></path>
                    <path d="M70.3044165,19.1888691 C70.2999813,19.1045264 70.2952504,19.055961 70.2952504,19.0073216 C70.2959896,16.7492874 70.2889672,14.4911792 70.3024207,12.233145 C70.3073733,11.3962227 70.381589,10.5632183 70.6142152,9.75113313 C70.9199484,8.68431969 71.505173,7.79986689 72.3480088,7.08609537 C73.7173029,5.92658625 75.3121269,5.50457697 77.0660268,5.77083681 C79.0506309,6.07206081 80.5108466,7.14870561 81.4055004,8.95087521 C81.8368236,9.81965697 81.9871029,10.7684202 81.9967125,11.7262016 C82.021254,14.162457 82.0128271,16.599008 82.0168932,19.0354851 C82.0168932,19.0773978 82.009205,19.1193843 82.0038088,19.1746765 L80.1552175,19.1746765 L80.1552175,18.9356192 C80.1552175,16.7883171 80.1567698,14.6410151 80.1542565,12.493713 C80.1534434,11.7661923 80.1096088,11.0417763 79.8955365,10.3402755 C79.4670962,8.93564769 78.522029,8.04084609 77.1190274,7.66732833 C75.442374,7.22099937 73.6101189,8.02066593 72.7536079,9.52759905 C72.4034488,10.1437223 72.2722408,10.8268909 72.2130309,11.5233651 C72.1834629,11.8721936 72.176958,12.2236832 72.1764405,12.5741379 C72.1733359,14.7028861 72.1720792,16.8317821 72.179693,18.9606781 C72.1804322,19.1542007 72.1229224,19.1975178 71.9412271,19.1929347 C71.4673999,19.1808858 70.9931292,19.1888691 70.5190802,19.1888691 L70.3044165,19.1888691 Z" id="Fill-10"></path>
                    <polygon id="Fill-12" points="57.6866905 19.1793926 59.5526531 19.1793926 59.5526531 5.93196763 57.6866905 5.93196763"></polygon>
                    <polygon id="Fill-14" points="64.1625462 19.1744399 66.0316134 19.1744399 66.0316134 5.93056315 64.1625462 5.93056315"></polygon>
                    <path d="M66.3746909,2.77090449 C66.3611635,3.47942769 65.7934579,4.04255025 65.100384,4.03464081 C64.3662845,4.02636177 63.7977658,3.44209809 63.8198678,2.71886481 C63.8422656,1.99156593 64.4010269,1.46185521 65.1279562,1.47878289 C65.8256131,1.49504529 66.3878486,2.07775665 66.3746909,2.77090449" id="Fill-15"></path>
                    <path d="M59.8973425,1.26207902 C59.9007276,1.97651582 59.3356831,2.55545726 58.6339605,2.55656794 C57.909101,2.55774878 57.3474568,1.9993571 57.3409519,1.27094942 C57.3345208,0.555329901 57.886925,0.00610430111 58.6190287,4.28611054e-05 C59.309885,-0.00572289889 59.8940748,0.571000941 59.8973425,1.26207902" id="Fill-16"></path>
                </g>
                <g id="Group-2" transform="translate(0, 0)">
                    <g id="Group" transform="translate(-0, 0)">
                        <g id="Group-7" transform="translate(0, 0)">
                            <g id="Group-5" transform="translate(0, -0)">
                                <g id="Group-6" transform="translate(-0, 0)">
                                    <g id="DALL·E-2023-11-17-15.12.15---A-smooth-gradient-background-with-shades-of-blue-and-purple,-similar-to-the-Stripe-landing-page-style.-The-gradient-is-diagonal,-going-from-a-light-bl" transform="translate(0, 0)">
                                        <mask id="mask-2" fill="white">
                                            <use xlink:href="#path-1"></use>
                                        </mask>
                                        <use id="Combined-Shape" fill="#000000" xlink:href="#path-1"></use>
                                    </g>
                                </g>
                            </g>
                        </g>
                    </g>
                </g>
            </g>
        </g>
    </g>
</svg>