<svg width="18" height="15" viewBox="0 0 18 15" xmlns="http://www.w3.org/2000/svg">
    <g fill="#FFF" stroke="#000" stroke-width=".3" fill-rule="evenodd">
        <path d="M5.497.795H3.434a2.75 2.75 0 0 0-2.75 2.75v8.25a2.75 2.75 0 0 0 2.75 2.75h2.063a2.75 2.75 0 0 0 2.75-2.75v-8.25a2.75 2.75 0 0 0-2.75-2.75zm1.375 11c0 .756-.62 1.375-1.375 1.375H3.434a1.379 1.379 0 0 1-1.375-1.375v-8.25c0-.757.619-1.375 1.375-1.375h2.063c.756 0 1.375.618 1.375 1.375v8.25zM15.122.795h-3.438a2.069 2.069 0 0 0-2.062 2.062V4.92c0 1.134.928 2.062 2.062 2.062h3.438a2.069 2.069 0 0 0 2.062-2.062V2.857A2.069 2.069 0 0 0 15.122.795zm.687 4.125a.69.69 0 0 1-.687.687h-3.438a.69.69 0 0 1-.687-.687V2.857a.69.69 0 0 1 .687-.687h3.438a.69.69 0 0 1 .687.687V4.92zM15.122 8.357h-3.438a2.069 2.069 0 0 0-2.062 2.063v2.062c0 1.134.928 2.063 2.062 2.063h3.438a2.069 2.069 0 0 0 2.062-2.063V10.42a2.069 2.069 0 0 0-2.062-2.063zm.687 4.125a.69.69 0 0 1-.687.688h-3.438a.69.69 0 0 1-.687-.688V10.42a.69.69 0 0 1 .687-.688h3.438a.69.69 0 0 1 .687.688v2.062z"/>
    </g>
</svg>
