<svg width="13" height="13" viewBox="0 0 13 13" xmlns="http://www.w3.org/2000/svg">
    <path d="M1.83 13h9.093c.942 0 1.705-.763 1.705-1.705v-8.24c0-.942-.763-1.705-1.705-1.705H9.786V.568a.568.568 0 1 0-1.136 0v.782H4.103V.568a.568.568 0 1 0-1.136 0v.782H1.83c-.942 0-1.705.763-1.705 1.705v8.24C.125 12.237.888 13 1.83 13zm9.093-1.137H1.83a.568.568 0 0 1-.568-.568V6.607h10.23v4.688a.568.568 0 0 1-.569.568zM1.83 2.486h1.137v.64a.568.568 0 1 0 1.136 0v-.64H8.65v.64a.568.568 0 1 0 1.136 0v-.64h1.137a.568.568 0 0 1 .568.569V5.47H1.261V3.055c0-.314.255-.569.57-.569z" fill="#000" fill-rule="evenodd"/>
</svg>
