<svg width="18" height="18" viewBox="0 0 18 18" xmlns="http://www.w3.org/2000/svg">
    <path d="M8.85.42c.44 0 .796.355.796.794v3.649l1.028-1.029A.794.794 0 1 1 11.8 4.96L9.412 7.345a.794.794 0 0 1-1.124 0L5.9 4.96a.794.794 0 1 1 1.125-1.125l1.028 1.029V1.214c0-.439.357-.795.796-.795zm4.773 6.363h1.09l-5.375 4.18a.795.795 0 0 1-.977 0l-5.375-4.18h1.091a.796.796 0 0 0 0-1.59h-1.59A2.386 2.386 0 0 0 .1 7.578v7.954a2.386 2.386 0 0 0 2.386 2.386h12.728a2.386 2.386 0 0 0 2.386-2.386V7.58a2.386 2.386 0 0 0-2.386-2.387h-1.591a.795.795 0 1 0 0 1.591zM1.69 15.533V7.791l5.693 4.429c.863.67 2.07.67 2.931 0l5.694-4.43v7.743c0 .44-.356.796-.795.796H2.486a.796.796 0 0 1-.795-.796z" fill="#FFF" fill-rule="evenodd"/>
</svg>
