<svg width="18" height="17" viewBox="0 0 18 17" xmlns="http://www.w3.org/2000/svg">
    <path d="M17.681 7.72c0-.07-.013-.14-.038-.207l-2.5-6.25a.625.625 0 0 0-.587-.393H3.306a.625.625 0 0 0-.581.393l-2.5 6.25a.621.621 0 0 0-.038.207v8.125a.626.626 0 0 0 .625.625h16.244a.626.626 0 0 0 .625-.625V7.72zm-13.95-5.6h10.4l2 5h-3.75a.625.625 0 0 0-.625.625v2.812H6.131V7.745a.626.626 0 0 0-.625-.625h-3.75l1.975-5zm-2.3 13.125V8.37h3.438v2.812a.626.626 0 0 0 .625.625h6.875a.626.626 0 0 0 .625-.625V8.37h3.437v6.875h-15z" fill="#FFF" fill-rule="evenodd"/>
</svg>
