<svg width="17" height="17" viewBox="0 0 17 17" xmlns="http://www.w3.org/2000/svg">
    <g fill-rule="nonzero" fill="none">
        <path d="m4.533 10.526-.557 2.08-2.035.042a7.964 7.964 0 0 1-.954-3.79 7.96 7.96 0 0 1 .895-3.68l1.813.332.794 1.802a4.755 4.755 0 0 0 .044 3.214z" fill="#FBBB00"/>
        <path d="M16.848 7.363a8.009 8.009 0 0 1-.035 3.164 7.998 7.998 0 0 1-2.817 4.569l-2.283-.117-.323-2.017a4.768 4.768 0 0 0 2.051-2.435H9.163V7.363H16.848z" fill="#518EF8"/>
        <path d="M13.995 15.095a7.966 7.966 0 0 1-5.008 1.762 7.999 7.999 0 0 1-7.046-4.209l2.592-2.122a4.757 4.757 0 0 0 6.857 2.436l2.605 2.133z" fill="#28B446"/>
        <path d="M14.094 2.699 11.502 4.82a4.758 4.758 0 0 0-7.014 2.491L1.883 5.178A7.998 7.998 0 0 1 8.987.858c1.942 0 3.721.69 5.107 1.84z" fill="#F14336"/>
    </g>
</svg>
