<svg width="23" height="31" viewBox="0 0 23 31" xmlns="http://www.w3.org/2000/svg">
    <g fill="#000" fill-rule="evenodd">
        <path d="M20.323.104H2.682A2.28 2.28 0 0 0 .405 2.38v26.247a2.28 2.28 0 0 0 2.277 2.277h17.637a2.28 2.28 0 0 0 2.276-2.277V2.38A2.28 2.28 0 0 0 20.32.104h.004zm1.129 28.528a1.13 1.13 0 0 1-1.129 1.128H2.682a1.13 1.13 0 0 1-1.129-1.128V2.38a1.13 1.13 0 0 1 1.129-1.128h17.637a1.13 1.13 0 0 1 1.128 1.128v26.247l.005.005z"/>
        <path d="M19.156 2.974H3.849a.574.574 0 0 0-.574.574v3.826c0 .317.257.574.574.574h15.307a.574.574 0 0 0 .574-.574V3.548a.574.574 0 0 0-.574-.574zM18.582 6.8H4.423V4.122h14.159V6.8zM7.676 9.67H3.849a.574.574 0 0 0-.574.574v3.827c0 .317.257.574.574.574h3.827a.574.574 0 0 0 .574-.574v-3.827a.574.574 0 0 0-.574-.574zm-.574 3.827H4.423v-2.679h2.679v2.679zM13.416 9.67H9.589a.574.574 0 0 0-.574.574v3.827c0 .317.257.574.574.574h3.827a.574.574 0 0 0 .574-.574v-3.827a.574.574 0 0 0-.574-.574zm-.574 3.827h-2.679v-2.679h2.679v2.679zM19.156 9.67h-3.827a.574.574 0 0 0-.574.574v3.827c0 .317.257.574.574.574h3.827a.574.574 0 0 0 .574-.574v-3.827a.574.574 0 0 0-.574-.574zm-.574 3.827h-2.679v-2.679h2.679v2.679zM7.676 16.367H3.849a.574.574 0 0 0-.574.574v3.827c0 .317.257.574.574.574h3.827a.574.574 0 0 0 .574-.574V16.94a.574.574 0 0 0-.574-.574zm-.574 3.827H4.423v-2.679h2.679v2.679zM13.416 16.367H9.589a.574.574 0 0 0-.574.574v3.827c0 .317.257.574.574.574h3.827a.574.574 0 0 0 .574-.574V16.94a.574.574 0 0 0-.574-.574zm-.574 3.827h-2.679v-2.679h2.679v2.679zM19.156 16.367h-3.827a.574.574 0 0 0-.574.574v10.523c0 .317.257.574.574.574h3.827a.574.574 0 0 0 .574-.574V16.941a.574.574 0 0 0-.574-.574zm-.574 10.523h-2.679v-9.375h2.679v9.375zM7.676 23.064H3.849a.574.574 0 0 0-.574.574v3.826c0 .317.257.574.574.574h3.827a.574.574 0 0 0 .574-.574v-3.826a.574.574 0 0 0-.574-.574zm-.574 3.826H4.423v-2.678h2.679v2.678zM13.416 23.064H9.589a.574.574 0 0 0-.574.574v3.826c0 .317.257.574.574.574h3.827a.574.574 0 0 0 .574-.574v-3.826a.574.574 0 0 0-.574-.574zm-.574 3.826h-2.679v-2.678h2.679v2.678z"/>
    </g>
</svg>
