<svg width="17" height="10" viewBox="0 0 17 10" xmlns="http://www.w3.org/2000/svg">
    <g fill="#FFF" fill-rule="evenodd">
        <path d="M1.906 3.437H13.975c.558 0 1.115.01 1.673 0h.024c.693 0 1.361-.611 1.328-1.328-.033-.72-.584-1.329-1.328-1.329H3.604c-.558 0-1.116-.01-1.674 0h-.024C1.213.78.545 1.391.578 2.11c.03.717.584 1.328 1.328 1.328zM10.46 6.903H1.901c-.693 0-1.361.61-1.328 1.328.033.72.584 1.328 1.328 1.328H10.459c.694 0 1.362-.61 1.328-1.328-.03-.72-.581-1.328-1.328-1.328z"/>
    </g>
</svg>
