<svg width="126" height="32" viewBox="0 0 126 32" xmlns="http://www.w3.org/2000/svg" xmlns:xlink="http://www.w3.org/1999/xlink">
    <defs>
        <filter x="-111.5%" y="-111%" width="546%" height="544%" filterUnits="objectBoundingBox" id="n5nc2c4ysa">
            <feOffset dx="10" dy="10" in="SourceAlpha" result="shadowOffsetOuter1"/>
            <feColorMatrix values="0 0 0 0 0.549019608 0 0 0 0 0.317647059 0 0 0 0 1 0 0 0 0.12262347 0" in="shadowOffsetOuter1"/>
        </filter>
        <filter x="-111.5%" y="-110.9%" width="546%" height="543.8%" filterUnits="objectBoundingBox" id="l08ni77etc">
            <feOffset dx="10" dy="10" in="SourceAlpha" result="shadowOffsetOuter1"/>
            <feColorMatrix values="0 0 0 0 0.549019608 0 0 0 0 0.317647059 0 0 0 0 1 0 0 0 0.12262347 0" in="shadowOffsetOuter1"/>
        </filter>
        <path d="M80.19 8.205c-1.117.09-2.242-.994-2.234-2.24.007-1.208 1.047-2.295 2.243-2.26 1.344.041 2.223.97 2.24 2.29.017 1.273-.987 2.254-2.248 2.21" id="99edxm9vab"/>
        <path d="M90.978 8.205c-1.123.09-2.244-.993-2.24-2.235.004-1.211 1.083-2.323 2.275-2.265 1.344.066 2.19.987 2.21 2.286.018 1.272-.985 2.256-2.245 2.214" id="0rwgy5blfd"/>
    </defs>
    <g fill="#fff" fill-rule="evenodd">
        <path d="m10.948 12.09-.114-.007c-.048.11-.108.215-.141.329a7957.52 7957.52 0 0 0-2.376 8.15c-.146.5-.112.546.424.548 1.163.003 2.326.002 3.489 0 .563-.001.62-.084.497-.63-.202-.898-.404-1.796-.59-2.697-.37-1.792-.729-3.586-1.094-5.378-.022-.107-.063-.21-.095-.314m25.5 6.24c0-.103-.011-.208.002-.31.051-.394-.108-.664-.465-.83-.229-.108-.454-.224-.68-.338-1.527-.767-3.687-.413-4.98.711-1.824 1.585-2.529 4.852-1.61 7.09.702 1.706 2.264 2.36 3.943 1.6.736-.333 1.301-.876 1.748-1.525 1.325-1.923 1.86-4.106 2.042-6.397m25.404-2.467c.207-.312.404-.63.623-.933 1.283-1.771 2.982-2.83 5.2-2.896 1.204-.036 2.363.214 3.35.975 1.07.823 1.568 1.966 1.75 3.26.226 1.594.05 3.161-.281 4.732a27.72 27.72 0 0 0-.5 3.549c-.037.477.134 1.009.335 1.46.504 1.134 1.81 1.304 2.8.399.674-.617 1.132-1.394 1.519-2.206.42-.883.845-1.772 1.157-2.695.175-.518.148-1.11.175-1.671.065-1.368.06-2.741.177-4.104.07-.83.208-1.667.604-2.433.419-.81 1.09-1.22 2.025-1.154.901.064 1.512.533 1.866 1.37.373.882.236 1.779.153 2.687a71.132 71.132 0 0 0-.264 3.858 41.263 41.263 0 0 0 .007 3.589c.033.656.162 1.331.385 1.949.42 1.159 1.596 1.506 2.653.857a3.805 3.805 0 0 0 1.342-1.415c.496-.894.917-1.83 1.39-2.737.41-.786.422-1.634.45-2.485.046-1.357.054-2.718.171-4.07.072-.828.222-1.658.593-2.436.417-.874 1.132-1.175 2.02-1.165.864.01 1.565.573 1.89 1.383.348.864.229 1.735.154 2.621-.125 1.468-.235 2.939-.274 4.41-.035 1.275.013 2.553.076 3.827.02.415.173.832.313 1.23.479 1.364 1.844 1.32 2.643.845a3.708 3.708 0 0 0 1.348-1.409c.501-.904.941-1.843 1.4-2.77.112-.227.185-.472.294-.7.221-.466.321-.943.315-1.466-.02-1.832-.018-3.664-.003-5.495.012-1.462 1.453-2.573 2.855-2.226.927.23 1.665 1.13 1.68 2.082.015.921.003 1.843.009 2.765 0 .152.03.304.048.456l.095.028c.072-.09.165-.17.214-.27.576-1.178 1.288-2.26 2.209-3.197 1.59-1.619 3.487-2.493 5.784-2.17 1.955.275 3.14 1.342 3.686 3.3.474 1.704.283 3.397.028 5.103a45.846 45.846 0 0 0-.418 3.736c-.034.51.075 1.063.253 1.547.321.875 1.278 1.136 2.089.648.88-.53 1.476-1.324 1.938-2.206.5-.957.947-1.945 1.369-2.94.39-.92 1.393-1.534 2.388-1.386 1.054.157 1.92 1.056 1.933 2.078.004.428-.049.887-.204 1.282-.806 2.056-1.919 3.929-3.516 5.48-1.234 1.2-2.668 2.082-4.384 2.331-1.887.275-3.647-.057-4.96-1.601-.775-.911-1.107-2.02-1.294-3.192-.285-1.782-.05-3.538.192-5.296.121-.878.282-1.75.4-2.628.038-.281.028-.577-.012-.858-.107-.739-.564-1.07-1.31-.997-.801.078-1.39.549-1.908 1.093-1.162 1.217-1.93 2.683-2.57 4.224-.968 2.33-1.573 4.762-2.046 7.23-.21 1.093-.83 1.741-1.933 1.984-.655.144-1.862-.28-2.258-1.023-.049-.091-.1-.181-.144-.275-.117-.247-.264-.28-.488-.11-1.093.829-2.327 1.26-3.696 1.395-.77.075-1.518.011-2.265-.114-1.378-.233-2.441-.966-3.222-2.123-.24-.353-.316-.36-.6-.058-.776.828-1.67 1.49-2.749 1.854-.551.186-1.132.293-1.706.404-.814.159-1.629.074-2.437-.063-1.27-.215-2.311-.814-3.08-1.86-.489-.665-.461-.525-.898-.08-1.128 1.15-2.46 1.946-4.069 2.168-1.58.218-3.126.076-4.554-.731-.95-.537-1.606-1.336-2.03-2.326-.4-.932-.537-1.917-.585-2.929-.095-2.027.28-3.99.723-5.947.138-.61.265-1.219.118-1.845-.177-.752-.885-1.225-1.583-1.01a2.898 2.898 0 0 0-.944.482c-.997.798-1.627 1.87-2.123 3.023-.828 1.927-1.27 3.937-1.24 6.044.013.922.017 1.844-.005 2.765-.03 1.255-.78 2.12-1.976 2.28-1.275.168-2.519-.763-2.51-2.123.02-3.134.016-6.267-.003-9.4a10.958 10.958 0 0 0-.187-1.818c-.154-.879-.902-1.205-1.696-.797-.619.318-1.046.825-1.41 1.39-.641.993-1.095 2.074-1.459 3.196a22.216 22.216 0 0 0-1.055 6.14c-.016.482-.043.965-.06 1.448a2.098 2.098 0 0 1-1.438 1.919c-1.254.412-2.29-.012-2.89-1.182-.163-.32-.244-.34-.517-.132-1.056.81-2.22 1.321-3.568 1.428-1.47.116-2.817-.171-4.003-1.062-.776-.583-1.356-1.341-1.803-2.2-.195-.373-.255-.382-.52-.063-.781.942-1.583 1.87-2.687 2.45-.496.26-1.019.5-1.558.64-1.109.29-2.24.368-3.386.181-1.706-.279-3.081-1.099-4.164-2.434-.294-.363-.347-.357-.64.01-.886 1.106-1.91 2.026-3.3 2.456-1.99.614-4.363.025-5.763-1.67a8.943 8.943 0 0 1-1.781-3.55c-.172-.68-.176-.68-.884-.68-2.004 0-4.009.006-6.013-.006-.358-.002-.57.085-.684.46-.379 1.232-.795 2.453-1.189 3.68-.305.952-.911 1.548-1.924 1.703-1.172.18-2.453-.766-2.533-1.951-.032-.467.061-.962.196-1.415.282-.948.63-1.877.949-2.814.831-2.441 1.663-4.882 2.492-7.324.495-1.461.982-2.925 1.478-4.386.649-1.907 1.305-3.812 1.954-5.719.38-1.112.741-2.23 1.13-3.337.5-1.422 2.279-2.018 3.5-1.183.538.366.804.91.948 1.518.654 2.744 1.297 5.49 1.947 8.235.43 1.815.857 3.63 1.297 5.443.52 2.137 1.026 4.277 1.593 6.401a6.18 6.18 0 0 0 .802 1.742c.491.755 1.375.813 1.966.135.44-.507.845-1.076 1.13-1.682a58.412 58.412 0 0 0 1.638-3.879c.243-.629.32-1.32.535-1.962.646-1.927 1.768-3.527 3.38-4.779 1.258-.977 2.682-1.523 4.249-1.787 1.418-.24 2.773-.022 4.12.375.286.084.391 0 .394-.276l.003-.414c0-2.984.007-5.968-.003-8.951-.003-.704.235-1.292.751-1.75.708-.627 1.536-.728 2.39-.377.85.351 1.23 1.071 1.323 1.957.021.205.013.414.013.621 0 6.163-.004 12.326.007 18.49 0 .746.06 1.495.142 2.238.076.694.304 1.348.749 1.904.544.681 1.513.847 2.278.42.88-.49 1.411-1.29 1.84-2.144.54-1.08.998-2.2 1.471-3.311.082-.193.087-.428.088-.643.006-1.959-.002-3.917.006-5.875.008-1.705 1.643-2.772 3.199-2.067.79.358 1.26.99 1.288 1.89.013.426 0 .853.009 1.28.003.14.04.28.061.42l.108.033c.083-.122.175-.238.247-.366.564-1.002 1.238-1.906 2.163-2.616 1.666-1.28 4.31-1.186 5.694.226.596.607.974 1.334 1.175 2.158.036.15.097.294.147.441l.118.015"/>
        <g transform="translate(.88 .594)">
            <use filter="url(#n5nc2c4ysa)" xlink:href="#99edxm9vab"/>
            <use xlink:href="#99edxm9vab"/>
        </g>
        <g transform="translate(.88 .594)">
            <use filter="url(#l08ni77etc)" xlink:href="#0rwgy5blfd"/>
            <use xlink:href="#0rwgy5blfd"/>
        </g>
    </g>
</svg>
