<svg width="126" height="31" viewBox="0 0 126 31" xmlns="http://www.w3.org/2000/svg" xmlns:xlink="http://www.w3.org/1999/xlink">
    <defs>
        <filter x="-111.5%" y="-111%" width="546%" height="544%" filterUnits="objectBoundingBox" id="g6cte6u5ea">
            <feOffset dx="10" dy="10" in="SourceAlpha" result="shadowOffsetOuter1"/>
            <feColorMatrix values="0 0 0 0 0.549019608 0 0 0 0 0.317647059 0 0 0 0 1 0 0 0 0.12262347 0" in="shadowOffsetOuter1"/>
        </filter>
        <filter x="-111.5%" y="-110.9%" width="546%" height="543.8%" filterUnits="objectBoundingBox" id="uzr4ezme7c">
            <feOffset dx="10" dy="10" in="SourceAlpha" result="shadowOffsetOuter1"/>
            <feColorMatrix values="0 0 0 0 0.549019608 0 0 0 0 0.317647059 0 0 0 0 1 0 0 0 0.12262347 0" in="shadowOffsetOuter1"/>
        </filter>
        <path d="M80.19 8.205c-1.117.09-2.242-.994-2.234-2.24.007-1.208 1.047-2.295 2.243-2.26 1.344.041 2.223.97 2.24 2.29.017 1.273-.987 2.254-2.248 2.21" id="vhf3iyncqb"/>
        <path d="M90.978 8.205c-1.123.09-2.244-.993-2.24-2.235.004-1.211 1.083-2.323 2.275-2.265 1.344.066 2.19.987 2.21 2.286.018 1.272-.985 2.256-2.245 2.214" id="sm42paqond"/>
    </defs>
    <g fill="#000" fill-rule="evenodd">
        <path d="m10.567 11.64-.114-.008c-.047.11-.107.215-.14.33a7957.52 7957.52 0 0 0-2.377 8.15c-.145.5-.112.545.425.547 1.162.003 2.325.002 3.488 0 .563 0 .62-.083.497-.63-.202-.898-.403-1.796-.59-2.697-.37-1.792-.728-3.585-1.094-5.378-.022-.107-.063-.21-.095-.314m25.5 6.24c0-.103-.01-.208.003-.31.05-.394-.109-.664-.465-.83-.23-.107-.454-.224-.68-.338-1.527-.767-3.688-.413-4.981.711-1.824 1.586-2.528 4.852-1.609 7.09.702 1.706 2.263 2.36 3.942 1.6.736-.333 1.301-.876 1.749-1.525 1.325-1.922 1.86-4.106 2.042-6.397m25.403-2.467c.208-.311.404-.63.623-.932 1.283-1.772 2.983-2.83 5.2-2.897 1.205-.036 2.363.215 3.351.975 1.07.823 1.568 1.967 1.75 3.26.225 1.594.05 3.162-.282 4.732a27.72 27.72 0 0 0-.499 3.55c-.037.477.133 1.008.334 1.46.504 1.134 1.811 1.303 2.8.398.674-.617 1.133-1.394 1.52-2.206.42-.883.844-1.772 1.156-2.695.176-.518.149-1.11.175-1.67.065-1.369.061-2.742.177-4.105.071-.829.208-1.666.604-2.433.42-.81 1.09-1.22 2.025-1.154.902.064 1.513.533 1.866 1.37.374.883.236 1.78.153 2.687a71.132 71.132 0 0 0-.264 3.858 41.263 41.263 0 0 0 .007 3.589c.033.656.163 1.332.386 1.949.419 1.159 1.595 1.506 2.653.858a3.805 3.805 0 0 0 1.341-1.415c.496-.895.918-1.83 1.39-2.737.41-.786.422-1.634.45-2.486.047-1.357.054-2.718.171-4.07.072-.828.222-1.658.593-2.436.417-.874 1.132-1.175 2.02-1.165.864.01 1.565.574 1.891 1.384.347.864.228 1.734.153 2.62-.125 1.468-.234 2.94-.274 4.41-.034 1.275.014 2.554.077 3.828.02.414.173.83.313 1.23.478 1.363 1.844 1.32 2.643.844a3.708 3.708 0 0 0 1.347-1.409c.501-.904.941-1.842 1.4-2.77.112-.227.185-.472.294-.7.222-.465.322-.943.316-1.466-.02-1.832-.019-3.663-.003-5.495.012-1.462 1.452-2.572 2.855-2.226.927.23 1.665 1.13 1.68 2.082.014.921.003 1.843.008 2.765.001.152.031.304.048.456l.095.028c.073-.09.165-.17.215-.27.575-1.177 1.287-2.26 2.208-3.197 1.59-1.619 3.487-2.493 5.784-2.17 1.955.276 3.14 1.342 3.686 3.301.474 1.704.284 3.396.028 5.102a45.846 45.846 0 0 0-.418 3.737c-.034.51.076 1.062.253 1.546.322.875 1.279 1.137 2.09.648.88-.53 1.475-1.324 1.937-2.206.5-.957.948-1.945 1.37-2.94.389-.92 1.392-1.534 2.387-1.386 1.054.157 1.921 1.057 1.933 2.079.004.428-.049.886-.203 1.281-.807 2.057-1.92 3.93-3.517 5.48-1.234 1.2-2.667 2.082-4.384 2.332-1.886.274-3.647-.057-4.96-1.602-.774-.91-1.106-2.02-1.294-3.191-.285-1.783-.05-3.539.193-5.296.12-.878.281-1.75.4-2.629.037-.28.028-.577-.013-.858-.107-.738-.564-1.07-1.31-.997-.801.078-1.39.55-1.908 1.093-1.161 1.218-1.93 2.683-2.57 4.225-.968 2.33-1.573 4.761-2.046 7.23-.209 1.093-.83 1.74-1.932 1.983-.655.144-1.862-.28-2.258-1.022-.05-.092-.1-.182-.145-.276-.116-.246-.264-.28-.487-.11-1.094.829-2.327 1.26-3.696 1.395-.771.075-1.519.012-2.265-.114-1.378-.232-2.442-.966-3.223-2.122-.239-.354-.316-.361-.599-.059-.777.828-1.67 1.49-2.75 1.855-.551.186-1.132.292-1.706.403-.814.159-1.628.074-2.436-.062-1.27-.215-2.312-.815-3.081-1.862-.488-.664-.461-.524-.898-.079-1.128 1.15-2.46 1.946-4.068 2.168-1.581.218-3.127.076-4.555-.73-.95-.538-1.606-1.336-2.03-2.327-.399-.932-.537-1.917-.584-2.929-.096-2.027.28-3.99.723-5.947.137-.61.264-1.218.117-1.845-.176-.751-.884-1.225-1.583-1.01a2.898 2.898 0 0 0-.944.483c-.996.797-1.627 1.87-2.122 3.022-.829 1.927-1.27 3.938-1.24 6.044.012.922.017 1.844-.005 2.765-.03 1.256-.78 2.12-1.977 2.28-1.274.168-2.518-.763-2.51-2.123.021-3.133.016-6.267-.002-9.4a10.958 10.958 0 0 0-.188-1.818c-.154-.878-.902-1.204-1.695-.797-.62.318-1.047.825-1.411 1.39-.64.994-1.094 2.074-1.458 3.196a22.216 22.216 0 0 0-1.055 6.14c-.016.483-.044.965-.06 1.448a2.098 2.098 0 0 1-1.438 1.92c-1.254.411-2.29-.013-2.89-1.183-.163-.32-.245-.34-.518-.131-1.055.809-2.22 1.32-3.567 1.427-1.47.117-2.818-.17-4.004-1.061-.776-.583-1.355-1.342-1.803-2.2-.194-.374-.255-.383-.52-.064-.78.943-1.583 1.87-2.687 2.45-.495.26-1.018.5-1.557.64-1.11.29-2.24.369-3.387.181-1.705-.278-3.08-1.099-4.163-2.434-.295-.363-.347-.356-.641.01-.886 1.107-1.909 2.027-3.3 2.456-1.99.615-4.362.025-5.763-1.67a8.943 8.943 0 0 1-1.78-3.55c-.173-.68-.177-.68-.884-.68-2.005 0-4.01.007-6.014-.005-.357-.003-.569.084-.684.459-.378 1.232-.794 2.453-1.188 3.68-.306.952-.912 1.548-1.925 1.703-1.172.18-2.452-.766-2.533-1.951-.031-.466.062-.962.196-1.415.282-.948.63-1.877.95-2.814.83-2.441 1.663-4.882 2.491-7.324.496-1.46.982-2.925 1.479-4.385.648-1.908 1.304-3.813 1.954-5.72.379-1.112.74-2.23 1.13-3.337.5-1.422 2.278-2.017 3.5-1.183.537.367.803.911.948 1.518.653 2.744 1.297 5.49 1.947 8.235.43 1.816.857 3.631 1.297 5.444.519 2.136 1.025 4.276 1.593 6.4a6.18 6.18 0 0 0 .801 1.743c.492.754 1.375.812 1.966.134.441-.506.845-1.076 1.13-1.681a58.412 58.412 0 0 0 1.639-3.88c.242-.629.319-1.32.534-1.961.646-1.928 1.768-3.527 3.38-4.78 1.258-.977 2.683-1.522 4.249-1.787 1.419-.24 2.774-.022 4.12.375.286.084.391 0 .394-.275.001-.139.004-.277.004-.415 0-2.984.006-5.967-.004-8.95-.002-.705.235-1.292.752-1.75.707-.627 1.536-.729 2.389-.377.85.35 1.23 1.07 1.323 1.956.022.205.013.414.013.621 0 6.164-.004 12.327.007 18.49.001.746.061 1.495.142 2.238.077.694.305 1.348.75 1.905.543.68 1.513.847 2.278.42.88-.49 1.41-1.291 1.839-2.145.54-1.079.998-2.2 1.472-3.311.082-.193.087-.428.087-.643.007-1.958-.002-3.917.007-5.875.007-1.705 1.642-2.772 3.198-2.067.79.358 1.26.991 1.288 1.89.014.427 0 .853.01 1.28.002.14.04.28.06.42l.108.033c.083-.122.175-.238.248-.366.564-1.002 1.238-1.906 2.163-2.616 1.665-1.279 4.309-1.186 5.694.226.595.607.973 1.334 1.174 2.158.037.15.098.295.147.441l.118.015"/>
        <g transform="translate(.5 .143)">
            <use filter="url(#g6cte6u5ea)" xlink:href="#vhf3iyncqb"/>
            <use xlink:href="#vhf3iyncqb"/>
        </g>
        <g transform="translate(.5 .143)">
            <use filter="url(#uzr4ezme7c)" xlink:href="#sm42paqond"/>
            <use xlink:href="#sm42paqond"/>
        </g>
    </g>
</svg>
