<svg width="32" height="32" viewBox="0 0 32 32" xmlns="http://www.w3.org/2000/svg">
    <path d="M31.138 28.701 3.072.635a1.562 1.562 0 0 0-2.213 0 1.562 1.562 0 0 0 0 2.213L3.526 5.5v21.19a4.677 4.677 0 0 0 4.677 4.677h15.591a4.684 4.684 0 0 0 3.728-1.87l1.403 1.419v-.002a1.559 1.559 0 0 0 2.213 0 1.559 1.559 0 0 0 0-2.213zm-7.344-.453H8.204c-.862 0-1.56-.697-1.56-1.558V8.618l18.6 18.6a1.556 1.556 0 0 1-1.45 1.03zM10.791 3.302h5.208v4.677a4.678 4.678 0 0 0 4.677 4.678h4.678v5.208-.001a1.559 1.559 0 1 0 3.118 0v-6.86a1.97 1.97 0 0 0-.094-.421v-.14a1.668 1.668 0 0 0-.295-.438L18.728.65a1.668 1.668 0 0 0-.437-.295h-.14l-.499-.173h-6.861a1.559 1.559 0 0 0 0 3.12zM19.117 5.5l4.039 4.037h-2.48c-.86 0-1.56-.697-1.56-1.558V5.5z" fill="#000" fill-rule="evenodd"/>
</svg>
