<svg width="10" height="11" viewBox="0 0 10 11" xmlns="http://www.w3.org/2000/svg">
    <path d="M5.225.75v.95h-3.8a.475.475 0 0 0-.475.475v6.65c0 .262.213.475.475.475h6.65a.475.475 0 0 0 .475-.475v-3.8h.95v3.8c0 .787-.638 1.425-1.425 1.425h-6.65A1.425 1.425 0 0 1 0 8.825v-6.65C0 1.388.638.75 1.425.75h3.8zm3.8 0h.01c.01 0 .021 0 .032.002L9.025.75a.498.498 0 0 1 .176.034l.025.01.03.015a.533.533 0 0 1 .106.08L9.317.851a.503.503 0 0 1 .123.144l.014.029a.5.5 0 0 1 .043.16l.002.026V3.6h-.95V2.372L5.086 5.836a.475.475 0 0 1-.627.04l-.045-.04a.475.475 0 0 1 0-.672L7.878 1.7H6.65V.75h2.375z" fill="#000" fill-rule="evenodd"/>
</svg>
