<svg width="15" height="13" viewBox="0 0 15 13" xmlns="http://www.w3.org/2000/svg">
    <g fill="#FFF" fill-rule="evenodd">
        <path d="M10.475 2.05c.685 1.18 1.446 2.51 2.054 3.537-1.94.761-3.08 1.902-4.145 2.967-1.027 1.027-1.902 1.901-3.537 2.433-.533-.912-1.331-2.32-2.054-3.536 1.94-.761 3.08-1.902 4.146-2.967 1.026-1.027 1.9-1.94 3.536-2.434zm.76-1.749C5.685 1.328 6.065 5.473.512 6.5l3.575 6.199C9.638 11.672 9.258 7.527 14.81 6.5L11.236.301z"/>
        <path d="M9.09 5.701C9.806 6.94 9.765 8.298 9 8.74c-.764.44-1.962-.204-2.676-1.441-.714-1.237-.673-2.597.09-3.039.764-.44 1.963.204 2.677 1.441"/>
    </g>
</svg>
