<svg width="60" height="29" viewBox="0 0 60 29" xmlns="http://www.w3.org/2000/svg">
    <g fill="#000" fill-rule="nonzero">
        <path d="M.181 7.909h4.422c.777 0 1.48.07 2.105.21.625.141 1.16.371 1.607.69.446.318.791.727 1.034 1.224.243.498.364 1.098.364 1.8 0 .753-.141 1.385-.421 1.895s-.66.921-1.14 1.234a4.998 4.998 0 0 1-1.674.68c-.638.14-1.315.21-2.03.21H2.594v5.609H.18V7.909zm4.096 5.915c.394 0 .772-.029 1.128-.087.357-.057.677-.159.957-.306.28-.146.504-.348.67-.603.165-.255.248-.587.248-.996 0-.396-.083-.718-.248-.966a1.725 1.725 0 0 0-.66-.584 2.823 2.823 0 0 0-.938-.277 8.548 8.548 0 0 0-1.081-.066H2.592v3.885h1.685zM16.373 20.293h-.057c-.23.41-.6.744-1.11 1.005-.511.262-1.091.393-1.743.393-.37 0-.755-.048-1.158-.144a3.443 3.443 0 0 1-1.11-.48 2.769 2.769 0 0 1-.842-.88c-.224-.362-.335-.813-.335-1.348 0-.69.194-1.238.583-1.646.39-.408.89-.721 1.503-.938a8.508 8.508 0 0 1 2.039-.431c.746-.07 1.477-.105 2.191-.105v-.23c0-.574-.207-.998-.622-1.273-.414-.274-.91-.411-1.483-.411-.485 0-.951.103-1.397.307a3.75 3.75 0 0 0-1.11.746l-1.187-1.398a5.188 5.188 0 0 1 1.808-1.09 6.174 6.174 0 0 1 2.077-.364c.817 0 1.49.115 2.019.345.529.23.948.53 1.253.9.306.37.52.785.641 1.244.121.46.182.919.182 1.38v5.588h-2.144v-1.17h.002zm-.038-3.024h-.517c-.37 0-.759.016-1.167.048a5.072 5.072 0 0 0-1.129.21 2.43 2.43 0 0 0-.861.46c-.23.198-.345.469-.345.813 0 .217.048.4.144.546.096.147.22.265.373.354.153.09.325.153.517.191.192.038.383.058.574.058.79 0 1.39-.21 1.8-.632.407-.42.612-.995.612-1.722v-.326zM19.2 12.274h2.546l2.565 6.68h.039l2.277-6.68h2.393l-4.345 11.158a8.08 8.08 0 0 1-.536 1.12c-.19.327-.421.6-.69.824a2.748 2.748 0 0 1-.947.507c-.363.115-.8.173-1.311.173-.192 0-.386-.01-.584-.029a4.29 4.29 0 0 1-.603-.104l.191-1.991c.153.051.303.086.45.105.146.02.283.028.41.028.243 0 .447-.028.614-.086.165-.058.306-.147.42-.268.115-.121.218-.272.307-.45.09-.179.186-.39.287-.631l.46-1.168-3.943-9.188zM53.17.25H37.83a6.33 6.33 0 0 0-6.33 6.33v15.34a6.33 6.33 0 0 0 6.33 6.33h15.34a6.33 6.33 0 0 0 6.33-6.33V6.58A6.331 6.331 0 0 0 53.17.25zm-9.802 6.813.796-.097c.068-.007 1.67-.196 3.525.195 2.566.538 4.385 1.918 5.257 3.99l-1.668.702c-1.188-2.822-4.554-3.141-6.1-3.13v8.397h-1.81V7.063zm-5.714 1.148a1.352 1.352 0 1 1 2.704 0 1.352 1.352 0 0 1-2.704 0zm15.735 7.706c-.098.64-.247 1.217-.436 1.663-1.226 2.88-4.085 4.34-8.496 4.34H38.04v-9.991h1.81v8.181h4.608c3.617 0 5.915-1.09 6.83-3.24.107-.249.198-.58.267-.956h-1.5l2.582-3.243 2.589 3.248-1.836-.002z"/>
    </g>
</svg>
