<?xml version="1.0" encoding="UTF-8" standalone="no"?>
<!DOCTYPE svg PUBLIC "-//W3C//DTD SVG 1.1//EN" "http://www.w3.org/Graphics/SVG/1.1/DTD/svg11.dtd">
<svg width="100%" height="100%" viewBox="0 0 2271 1075" version="1.1" xmlns="http://www.w3.org/2000/svg" xmlns:xlink="http://www.w3.org/1999/xlink" xml:space="preserve" xmlns:serif="http://www.serif.com/" style="fill-rule:evenodd;clip-rule:evenodd;stroke-linejoin:round;stroke-miterlimit:2;">
    <g transform="matrix(4.16667,0,0,4.16667,0,0)">
        <path d="M0.807,70.826L41.346,70.826C48.48,70.826 54.915,71.471 60.649,72.756C66.38,74.045 71.294,76.152 75.39,79.075C79.484,81.999 82.643,85.743 84.867,90.306C87.088,94.869 88.201,100.368 88.201,106.802C88.201,113.706 86.912,119.498 84.34,124.175C81.765,128.856 78.286,132.629 73.899,135.495C69.511,138.363 64.392,140.438 58.543,141.724C52.691,143.013 46.492,143.655 39.942,143.655L22.919,143.655L22.919,195.073L0.807,195.073L0.807,70.826ZM38.362,125.052C41.987,125.052 45.439,124.79 48.716,124.262C51.99,123.736 54.915,122.801 57.491,121.456C60.062,120.112 62.111,118.269 63.633,115.928C65.152,113.588 65.913,110.547 65.913,106.802C65.913,103.177 65.152,100.221 63.633,97.939C62.111,95.658 60.092,93.876 57.578,92.586C55.061,91.3 52.196,90.453 48.979,90.042C45.76,89.634 42.456,89.428 39.064,89.428L22.919,89.428L22.919,125.052L38.362,125.052Z" style="fill:white;fill-rule:nonzero;"/>
        <path d="M149.269,184.368L148.743,184.368C146.637,188.114 143.242,191.185 138.565,193.582C133.884,195.978 128.562,197.179 122.595,197.179C119.2,197.179 115.663,196.741 111.977,195.863C108.292,194.985 104.898,193.523 101.799,191.476C98.698,189.431 96.123,186.737 94.078,183.403C92.029,180.069 91.007,175.946 91.007,171.031C91.007,164.713 92.789,159.685 96.359,155.94C99.926,152.196 104.519,149.33 110.135,147.34C115.751,145.353 121.98,144.035 128.825,143.392C135.669,142.749 142.365,142.427 148.918,142.427L148.918,140.32C148.918,135.056 147.015,131.168 143.215,128.65C139.412,126.136 134.879,124.877 129.614,124.877C125.166,124.877 120.898,125.815 116.803,127.685C112.707,129.557 109.315,131.84 106.625,134.53L95.745,121.718C100.54,117.273 106.068,113.939 112.328,111.716C118.586,109.494 124.934,108.382 131.369,108.382C138.855,108.382 145.027,109.434 149.883,111.54C154.737,113.646 158.57,116.396 161.378,119.788C164.186,123.182 166.144,126.984 167.257,131.194C168.367,135.406 168.924,139.619 168.924,143.831L168.924,195.073L149.269,195.073L149.269,184.368ZM148.918,156.641L144.18,156.641C140.786,156.641 137.218,156.79 133.475,157.08C129.729,157.373 126.28,158.017 123.121,159.01C119.962,160.006 117.33,161.41 115.224,163.222C113.118,165.037 112.065,167.521 112.065,170.68C112.065,172.67 112.504,174.338 113.382,175.682C114.259,177.028 115.399,178.111 116.803,178.929C118.207,179.748 119.787,180.332 121.541,180.684C123.297,181.034 125.052,181.21 126.806,181.21C134.059,181.21 139.557,179.28 143.303,175.418C147.046,171.558 148.918,166.293 148.918,159.624L148.918,156.641Z" style="fill:white;fill-rule:nonzero;"/>
        <path d="M175.187,110.838L198.527,110.838L222.044,172.084L222.394,172.084L243.278,110.838L265.214,110.838L225.378,213.149C223.856,217.009 222.219,220.432 220.464,223.415C218.71,226.399 216.603,228.914 214.147,230.961C211.689,233.006 208.795,234.559 205.459,235.611C202.125,236.665 198.116,237.19 193.438,237.19C191.683,237.19 189.898,237.104 188.086,236.928C186.271,236.753 184.428,236.429 182.558,235.963L184.313,217.712C185.717,218.178 187.09,218.502 188.436,218.677C189.78,218.852 191.039,218.941 192.21,218.941C194.431,218.941 196.304,218.677 197.826,218.151C199.345,217.624 200.634,216.804 201.686,215.694C202.739,214.58 203.675,213.207 204.494,211.57C205.312,209.93 206.19,207.999 207.127,205.778L211.339,195.073L175.187,110.838Z" style="fill:white;fill-rule:nonzero;"/>
        <path d="M486.635,0.605L345.994,0.605C313.938,0.605 287.951,26.592 287.951,58.649L287.951,199.289C287.951,231.346 313.938,257.333 345.994,257.333L486.635,257.333C518.691,257.333 544.678,231.346 544.678,199.289L544.678,58.649C544.678,26.592 518.691,0.605 486.635,0.605ZM396.77,63.071L404.066,62.183C404.683,62.109 419.374,60.386 436.385,63.96C459.918,68.904 476.586,81.555 484.584,100.543L469.291,106.986C458.393,81.119 427.528,78.19 413.365,78.298L413.365,155.279L396.77,155.279L396.77,63.071ZM344.383,73.593C344.383,66.743 349.937,61.19 356.786,61.19C363.636,61.19 369.19,66.743 369.19,73.593C369.19,80.443 363.636,85.996 356.786,85.996C349.937,85.996 344.383,80.443 344.383,73.593ZM488.653,144.244C487.757,150.117 486.394,155.4 484.65,159.496C473.406,185.899 447.201,199.286 406.762,199.286L347.911,199.286L347.911,107.683L364.507,107.683L364.507,182.691L406.762,182.691C439.921,182.691 460.991,172.699 469.381,152.994C470.357,150.703 471.187,147.671 471.829,144.225L458.072,144.21L481.754,114.485L505.488,144.262L488.653,144.244Z" style="fill:white;fill-rule:nonzero;"/>
    </g>
</svg>
