<svg width="67" height="32" viewBox="0 0 67 32" xmlns="http://www.w3.org/2000/svg">
    <g fill="#231F20" fill-rule="nonzero">
        <path d="M.5 9.17h4.896c.783-.007 1.565.07 2.33.233a4.878 4.878 0 0 1 1.78.764c.49.348.884.815 1.146 1.356.283.625.42 1.306.402 1.993 0 .833-.155 1.532-.466 2.097a3.77 3.77 0 0 1-1.261 1.367 5.51 5.51 0 0 1-1.855.75c-.736.162-1.487.243-2.24.242H3.179v6.21H.5V9.17zm4.535 6.55c.419.001.837-.03 1.251-.096.37-.055.727-.17 1.06-.34.3-.153.556-.383.74-.666.198-.333.293-.716.276-1.102a1.894 1.894 0 0 0-.275-1.07 1.913 1.913 0 0 0-.725-.648 3.154 3.154 0 0 0-1.039-.306 9.473 9.473 0 0 0-1.198-.074H3.17v4.302h1.865zM18.43 22.884h-.065c-.29.484-.717.871-1.228 1.112-.6.298-1.263.447-1.932.435a5.512 5.512 0 0 1-1.278-.16 3.813 3.813 0 0 1-1.23-.53 3.053 3.053 0 0 1-.932-.975 2.803 2.803 0 0 1-.374-1.493c0-.764.215-1.371.646-1.823a4.173 4.173 0 0 1 1.664-1.038 9.338 9.338 0 0 1 2.257-.478c.826-.08 1.635-.12 2.427-.12v-.254c0-.636-.23-1.105-.689-1.41a2.908 2.908 0 0 0-1.642-.456 3.69 3.69 0 0 0-1.546.346c-.455.2-.871.48-1.228.827l-1.314-1.552a5.736 5.736 0 0 1 2.002-1.208 6.832 6.832 0 0 1 2.295-.402c.905 0 1.65.127 2.235.382a3.623 3.623 0 0 1 1.389.996c.335.402.577.872.71 1.377.133.498.2 1.011.202 1.526v6.189h-2.37v-1.291zm-.043-3.35h-.572c-.41 0-.84.018-1.293.054-.424.03-.844.108-1.25.233-.35.103-.675.276-.955.508a1.13 1.13 0 0 0-.38.901c-.008.213.047.423.158.604.105.162.246.296.413.393.178.101.371.173.572.21.21.043.423.065.637.065.876 0 1.54-.233 1.991-.7.452-.465.678-1.102.679-1.907v-.36zM21.56 14.003h2.818l2.84 7.396h.043l2.522-7.396h2.65L27.62 26.36a8.862 8.862 0 0 1-.593 1.24 3.47 3.47 0 0 1-.763.911c-.31.254-.667.445-1.05.562-.47.136-.96.2-1.449.19-.213 0-.428-.01-.646-.03a4.59 4.59 0 0 1-.668-.122l.209-2.201c.162.056.329.096.499.12.15.02.303.031.455.032.23.006.46-.027.679-.095.177-.06.337-.163.466-.299.137-.148.25-.316.338-.497.1-.198.205-.431.319-.7l.508-1.293-4.365-10.174zM59.173.69H42.187a7.01 7.01 0 0 0-7.005 7.017v16.978a7.005 7.005 0 0 0 7.01 7.005h16.98a7.005 7.005 0 0 0 7.005-7.005V7.707A7.005 7.005 0 0 0 59.173.69zM53.2 23.827a5.918 5.918 0 0 1 0-11.823h6.669v-1.836l3.43 2.852-3.434 2.859v-1.876h-6.75c-2.067 0-3.776 1.847-3.776 3.912a3.865 3.865 0 1 0 7.722 0 4.613 4.613 0 0 0-.759-2.476h2.266c.357.777.543 1.621.543 2.476a5.86 5.86 0 0 1-5.911 5.912zm-8.212-2.053c.473-.023.94-.114 1.387-.268v2.032a4.034 4.034 0 0 1-1.387.291 3.696 3.696 0 0 1-3.666-3.716v-6.11h-2.311v-2h2.314V9.468h2.006v2.537h5.474a7.554 7.554 0 0 0-1.985 2h-3.49v6.107a1.67 1.67 0 0 0 1.66 1.66l-.002.003z"/>
    </g>
</svg>
