<svg width="10" height="15" viewBox="0 0 10 15" xmlns="http://www.w3.org/2000/svg">
    <path d="M2.63 13.652a.576.576 0 0 1 0-.81c.227-.259.563-.636 1.21-.636.649 0 .996.39 1.223.648.197.225.244.259.366.259.12 0 .169-.034.366-.26.226-.256.563-.647 1.222-.647s.996.39 1.222.648c.197.225.244.259.366.259.12 0 .169-.034.366-.26a.569.569 0 0 1 .855.75c-.225.257-.563.647-1.222.647-.658 0-.996-.39-1.221-.648-.197-.225-.245-.259-.367-.259-.12 0-.168.034-.366.26-.225.257-.563.647-1.22.647-.658 0-1-.39-1.229-.648-.197-.225-.245-.259-.366-.259s-.169.034-.366.26l-.025.025-.017.018h.001a.563.563 0 0 1-.798.006zm1.588-3.086-2.946 1.572a.586.586 0 0 1-.862-.542L.55 8.26a.583.583 0 0 1 .091-.281L5.027 1.08a.586.586 0 0 1 .366-.259 2.934 2.934 0 0 1 3.505 2.206.587.587 0 0 1-.076.442l-4.386 6.898a.586.586 0 0 1-.218.198zm-.694-.961a1.758 1.758 0 0 0-1.807-1.137l-.05 1.303c.282.059.532.218.704.449l1.153-.615z" fill="#FFF" fill-rule="evenodd"/>
</svg>
