<svg width="18" height="18" viewBox="0 0 18 18" xmlns="http://www.w3.org/2000/svg">
    <path d="M1.697 10.753v4.797a2.101 2.101 0 0 0 2.1 2.1h10.08a2.101 2.101 0 0 0 2.1-2.1v-4.797a2.109 2.109 0 0 0 1.26-1.923V7.15a2.1 2.1 0 0 0-2.1-2.1h-.924a2.6 2.6 0 0 0 .504-1.537A2.663 2.663 0 0 0 12.053.85a3.755 3.755 0 0 0-3.216 1.848A3.755 3.755 0 0 0 5.62.85a2.663 2.663 0 0 0-2.663 2.663A2.6 2.6 0 0 0 3.46 5.05h-.924a2.1 2.1 0 0 0-2.1 2.1v1.68a2.109 2.109 0 0 0 1.26 1.923zm1.68 4.797v-4.62h4.62v5.04h-4.2a.42.42 0 0 1-.42-.42zM10.03 4.21a2.074 2.074 0 0 1 2.023-1.68.982.982 0 0 1 .144 1.949l-2.327.386.16-.655zM5.62 2.53a2.074 2.074 0 0 1 2.024 1.68l.134.672-2.302-.403A.983.983 0 0 1 5.62 2.53zM2.117 7.15a.42.42 0 0 1 .42-.42h12.6a.42.42 0 0 1 .42.42v1.68a.42.42 0 0 1-.42.42.84.84 0 0 0-.84.84v5.46a.42.42 0 0 1-.42.42h-4.2v-5.04h2.52a.84.84 0 1 0 0-1.68h-9.66a.42.42 0 0 1-.42-.42V7.15z" fill="#FFF" stroke="#000" stroke-width=".5" fill-rule="evenodd"/>
</svg>
