<svg width="36" height="45" viewBox="0 0 36 45" fill="none" xmlns="http://www.w3.org/2000/svg">
<path fill-rule="evenodd" clip-rule="evenodd" d="M33.002 0.168259H3.72917C2.15518 0.168259 0.857971 1.46547 0.857971 3.03946V41.2971C0.857971 42.8711 2.15518 44.1683 3.72917 44.1683H33.0002C34.5741 44.1683 35.8714 42.8711 35.8714 41.2971L35.8732 3.03946C35.8732 1.46547 34.576 0.168259 33.002 0.168259H33.002ZM33.5104 41.297C33.5104 41.5756 33.2788 41.8072 33.0002 41.8072L3.72921 41.8054C3.4506 41.8054 3.219 41.5738 3.219 41.2952L3.22081 3.03941C3.22081 2.76079 3.45239 2.5292 3.73102 2.5292H33.002C33.2806 2.5292 33.5122 2.76077 33.5122 3.03941L33.5104 41.297Z" fill="#7367E7"/>
<path fill-rule="evenodd" clip-rule="evenodd" d="M27.0732 27.726H9.65756C9.00988 27.726 8.49967 28.2363 8.49967 28.8839C8.49967 29.5316 9.00988 30.0418 9.65756 30.0418H27.1181C27.7658 30.0418 28.276 29.5316 28.276 28.8839C28.276 28.2363 27.7206 27.726 27.0728 27.726H27.0732Z" fill="#7367E7"/>
<path fill-rule="evenodd" clip-rule="evenodd" d="M27.0732 20.6865H9.65756C9.00988 20.6865 8.49967 21.1967 8.49967 21.8444C8.49967 22.4921 9.00988 23.0023 9.65756 23.0023H27.1181C27.7658 23.0023 28.276 22.4921 28.276 21.8444C28.276 21.1949 27.7206 20.6865 27.0728 20.6865H27.0732Z" fill="#7367E7"/>
</svg>
