<svg width="32" height="32" viewBox="0 0 32 32" fill="none" xmlns="http://www.w3.org/2000/svg">
<path fill-rule="evenodd" clip-rule="evenodd" d="M4.23461 18.2821L8.24689 19.8863H8.24872C9.91335 20.5547 11.2355 21.8769 11.9039 23.5415L13.5081 27.5538V27.5557C14.4091 29.8026 16.6212 31.2456 19.0404 31.165C21.4596 31.0863 23.571 29.5004 24.3238 27.1986L30.3376 8.732C31.0115 6.66636 30.4676 4.39558 28.9312 2.85932C27.3948 1.32292 25.124 0.779012 23.0585 1.45291L4.59198 7.4667C2.29007 8.21936 0.704205 10.3308 0.625493 12.7501C0.544916 15.1692 1.98792 17.3813 4.23489 18.2824L4.23461 18.2821ZM5.77284 11.0157L24.2427 5.00193C24.4386 4.94516 24.6401 4.91769 24.8433 4.92135C25.4897 4.92318 26.0977 5.23266 26.4786 5.75638C26.8577 6.28012 26.9639 6.95403 26.7661 7.56933L20.7744 26.0176C20.5125 26.8526 19.7416 27.4204 18.8662 27.424C18.0422 27.4295 17.2968 26.9296 16.991 26.1623L15.3832 22.15C15.0975 21.4395 14.7313 20.7638 14.2954 20.1338L14.365 20.077L19.2874 15.1546C20.0217 14.4221 20.0217 13.2354 19.2874 12.503C18.5549 11.7686 17.3682 11.7686 16.6358 12.503L11.7134 17.4254C11.7134 17.4254 11.6767 17.473 11.6566 17.495C11.0266 17.0591 10.3509 16.6929 9.64037 16.4072L5.62809 14.803C4.8315 14.4935 4.32055 13.7116 4.35351 12.8582C4.38647 12.0049 4.95601 11.2651 5.77271 11.016L5.77284 11.0157Z" fill="#7367E7"/>
<path d="M4.23461 18.2821L4.42023 17.8179L3.8809 18.6355L4.23461 18.2821ZM8.24689 19.8863L8.06127 20.3506L8.15064 20.3863H8.24689V19.8863ZM8.24872 19.8863L8.43504 19.4223L8.34536 19.3863H8.24872V19.8863ZM11.9039 23.5415L12.3682 23.3559L12.3679 23.3552L11.9039 23.5415ZM13.5081 27.5538H14.0081V27.4576L13.9724 27.3682L13.5081 27.5538ZM13.5081 27.5557H13.0081V27.6522L13.044 27.7417L13.5081 27.5557ZM19.0404 31.165L19.0242 30.6653L19.0238 30.6653L19.0404 31.165ZM24.3238 27.1986L24.7991 27.354L24.7993 27.3534L24.3238 27.1986ZM30.3376 8.732L29.8623 8.57692L29.8622 8.57717L30.3376 8.732ZM28.9312 2.85932L28.5777 3.21287L28.5777 3.21289L28.9312 2.85932ZM23.0585 1.45291L23.2134 1.92834L23.2136 1.92825L23.0585 1.45291ZM4.59198 7.4667L4.43715 6.99128L4.43659 6.99146L4.59198 7.4667ZM0.625493 12.7501L1.12522 12.7667L1.12523 12.7664L0.625493 12.7501ZM4.23489 18.2824L4.04879 18.7465L4.58859 17.929L4.23489 18.2824ZM5.77284 11.0157L5.61804 10.5403L5.41319 10.607L5.32096 10.8017L5.77284 11.0157ZM24.2427 5.00193L24.1036 4.52167L24.0957 4.52396L24.0879 4.52649L24.2427 5.00193ZM24.8433 4.92135L24.8343 5.42132L24.8419 5.42135L24.8433 4.92135ZM26.4786 5.75638L26.8837 5.46322L26.883 5.46228L26.4786 5.75638ZM26.7661 7.56933L27.2417 7.72378L27.2422 7.72235L26.7661 7.56933ZM20.7744 26.0176L20.2988 25.8632L20.2973 25.868L20.7744 26.0176ZM18.8662 27.424L18.8641 26.924L18.8629 26.924L18.8662 27.424ZM16.991 26.1623L17.4555 25.9772L17.4551 25.9763L16.991 26.1623ZM15.3832 22.15L15.8473 21.964L15.8471 21.9635L15.3832 22.15ZM14.2954 20.1338L13.9794 19.7463L13.6214 20.0383L13.8842 20.4183L14.2954 20.1338ZM14.365 20.077L14.681 20.4644L14.7007 20.4485L14.7185 20.4306L14.365 20.077ZM19.2874 15.1546L18.9343 14.8006L18.9339 14.801L19.2874 15.1546ZM19.2874 12.503L18.9334 12.8561L18.9343 12.857L19.2874 12.503ZM16.6358 12.503L16.9893 12.8565L16.9898 12.8561L16.6358 12.503ZM11.7134 17.4254L11.3598 17.0718L11.3369 17.0948L11.3171 17.1205L11.7134 17.4254ZM11.6566 17.495L11.3721 17.9061L11.7307 18.1542L12.0252 17.8328L11.6566 17.495ZM9.64037 16.4072L9.8269 15.9433L9.82599 15.9429L9.64037 16.4072ZM5.62809 14.803L5.81372 14.3387L5.80916 14.3369L5.62809 14.803ZM4.35351 12.8582L3.85388 12.8389L3.85388 12.8389L4.35351 12.8582ZM5.77271 11.016L5.91857 11.4942L6.12997 11.4298L6.22458 11.23L5.77271 11.016ZM4.04898 18.7464L8.06127 20.3506L8.43251 19.4221L4.42023 17.8179L4.04898 18.7464ZM8.24689 20.3863H8.24872V19.3863H8.24689V20.3863ZM8.06241 20.3503C9.60048 20.9679 10.8223 22.1898 11.4399 23.7278L12.3679 23.3552C11.6487 21.564 10.2262 20.1416 8.43504 19.4223L8.06241 20.3503ZM11.4397 23.7272L13.0438 27.7394L13.9724 27.3682L12.3682 23.3559L11.4397 23.7272ZM13.0081 27.5538V27.5557H14.0081V27.5538H13.0081ZM13.044 27.7417C14.0233 30.184 16.4276 31.7524 19.0571 31.6648L19.0238 30.6653C16.8148 30.7389 14.7949 29.4212 13.9722 27.3696L13.044 27.7417ZM19.0567 31.6648C21.6863 31.5792 23.981 29.8554 24.7991 27.354L23.8486 27.0431C23.161 29.1455 21.2328 30.5934 19.0242 30.6653L19.0567 31.6648ZM24.7993 27.3534L30.8131 8.88682L29.8622 8.57717L23.8484 27.0437L24.7993 27.3534ZM30.813 8.88708C31.5453 6.64247 30.9543 4.1751 29.2848 2.50575L28.5777 3.21289C29.981 4.61606 30.4778 6.69026 29.8623 8.57692L30.813 8.88708ZM29.2848 2.50577C27.6153 0.836289 25.1479 0.245272 22.9035 0.977575L23.2136 1.92825C25.1001 1.31275 27.1743 1.80954 28.5777 3.21287L29.2848 2.50577ZM22.9037 0.977489L4.43715 6.99128L4.7468 7.94213L23.2134 1.92834L22.9037 0.977489ZM4.43659 6.99146C1.93509 7.80938 0.211318 10.104 0.125758 12.7338L1.12523 12.7664C1.19709 10.5576 2.64504 8.62935 4.74737 7.94194L4.43659 6.99146ZM0.125771 12.7335C0.0381895 15.3628 1.60656 17.7671 4.04879 18.7465L4.421 17.8184C2.36929 16.9956 1.05164 14.9756 1.12522 12.7667L0.125771 12.7335ZM4.58859 17.929L4.58831 17.9287L3.8809 18.6355L3.88119 18.6358L4.58859 17.929ZM5.92764 11.4911L24.3975 5.47736L24.0879 4.52649L5.61804 10.5403L5.92764 11.4911ZM24.3818 5.48218C24.5309 5.43899 24.6824 5.41853 24.8343 5.42127L24.8523 4.42143C24.5977 4.41684 24.3464 4.45133 24.1036 4.52167L24.3818 5.48218ZM24.8419 5.42135C25.3293 5.42273 25.7874 5.65611 26.0743 6.05047L26.883 5.46228C26.408 4.80921 25.6501 4.42363 24.8447 4.42135L24.8419 5.42135ZM26.0736 6.04953C26.359 6.4439 26.4394 6.95204 26.2901 7.41631L27.2422 7.72235C27.4885 6.95601 27.3564 6.11635 26.8837 5.46322L26.0736 6.04953ZM26.2906 7.41488L20.2988 25.8632L21.2499 26.1721L27.2417 7.72378L26.2906 7.41488ZM20.2973 25.868C20.1007 26.4949 19.5222 26.9213 18.8641 26.924L18.8683 27.924C19.961 27.9194 20.9243 27.2104 21.2515 26.1672L20.2973 25.868ZM18.8629 26.924C18.2443 26.9282 17.6849 26.5528 17.4555 25.9772L16.5265 26.3474C16.9087 27.3064 17.8401 27.9309 18.8696 27.924L18.8629 26.924ZM17.4551 25.9763L15.8473 21.964L14.919 22.336L16.5269 26.3483L17.4551 25.9763ZM15.8471 21.9635C15.5472 21.2175 15.163 20.509 14.7066 19.8493L13.8842 20.4183C14.2995 21.0185 14.6478 21.6614 14.9193 22.3365L15.8471 21.9635ZM14.6115 20.5212L14.681 20.4644L14.0489 19.6896L13.9794 19.7463L14.6115 20.5212ZM14.7185 20.4306L19.641 15.5081L18.9339 14.801L14.0114 19.7235L14.7185 20.4306ZM19.6405 15.5086C20.5707 14.5807 20.5707 13.0768 19.6405 12.1489L18.9343 12.857C19.4728 13.394 19.4728 14.2635 18.9343 14.8006L19.6405 15.5086ZM19.6414 12.1498C18.7135 11.2197 17.2096 11.2197 16.2818 12.1499L16.9898 12.8561C17.5269 12.3176 18.3963 12.3176 18.9334 12.8561L19.6414 12.1498ZM16.2822 12.1494L11.3598 17.0718L12.0669 17.7789L16.9893 12.8565L16.2822 12.1494ZM11.7134 17.4254C11.3171 17.1205 11.3171 17.1205 11.3171 17.1205C11.3171 17.1205 11.3171 17.1205 11.3171 17.1205C11.3171 17.1205 11.3171 17.1205 11.3171 17.1204C11.3171 17.1204 11.3171 17.1204 11.3171 17.1204C11.3172 17.1204 11.3172 17.1204 11.3172 17.1204C11.3172 17.1204 11.3171 17.1204 11.3171 17.1205C11.3169 17.1206 11.3167 17.121 11.3163 17.1214C11.3156 17.1223 11.3145 17.1238 11.313 17.1257C11.3101 17.1295 11.306 17.1347 11.3015 17.1403C11.2895 17.1554 11.285 17.1604 11.288 17.1572L12.0252 17.8328C12.0483 17.8076 12.0722 17.7777 12.0836 17.7635C12.0908 17.7545 12.0971 17.7464 12.1016 17.7406C12.1039 17.7377 12.1058 17.7353 12.1071 17.7335C12.1078 17.7326 12.1084 17.7319 12.1088 17.7313C12.109 17.7311 12.1092 17.7308 12.1093 17.7307C12.1094 17.7306 12.1095 17.7305 12.1095 17.7304C12.1096 17.7304 12.1096 17.7303 12.1096 17.7303C12.1096 17.7303 12.1096 17.7303 12.1096 17.7303C12.1096 17.7303 12.1096 17.7303 12.1096 17.7303C12.1097 17.7303 12.1097 17.7302 11.7134 17.4254ZM11.9411 17.0838C11.2813 16.6273 10.5728 16.2432 9.8269 15.9433L9.45384 16.8711C10.1289 17.1426 10.7719 17.4909 11.3721 17.9061L11.9411 17.0838ZM9.82599 15.9429L5.81371 14.3387L5.44246 15.2673L9.45475 16.8715L9.82599 15.9429ZM5.80916 14.3369C5.21223 14.105 4.82838 13.5186 4.85314 12.8775L3.85388 12.8389C3.81272 13.9046 4.45077 14.882 5.44701 15.2691L5.80916 14.3369ZM4.85314 12.8775C4.87789 12.2365 5.30576 11.6811 5.91857 11.4942L5.62685 10.5377C4.60627 10.849 3.89504 11.7732 3.85388 12.8389L4.85314 12.8775ZM6.22458 11.23L6.22471 11.2297L5.32096 10.8017L5.32084 10.8019L6.22458 11.23Z" fill="#F8F4FF"/>
</svg>
