<svg width="16" height="17" viewBox="0 0 16 17" fill="none" xmlns="http://www.w3.org/2000/svg">
<path fill-rule="evenodd" clip-rule="evenodd" d="M9.47705 14.2489C8.96728 14.4233 8.6957 14.9788 8.87102 15.4886C9.04634 15.9984 9.60188 16.27 10.1117 16.0946C11.9088 15.4991 13.4058 14.2308 14.2871 12.5546C15.1685 10.8785 15.3658 8.9261 14.8379 7.10804C14.31 5.28901 13.097 3.74636 11.4552 2.80306H13.1437C13.6592 2.81449 14.0994 2.4343 14.1633 1.92259C14.19 1.64721 14.0994 1.37469 13.9136 1.16983C13.7278 0.965916 13.4639 0.850617 13.1875 0.851568H10.2603C9.1826 0.851568 8.30882 1.72535 8.30882 2.80306V5.68833C8.29834 6.20289 8.67853 6.64217 9.18928 6.70601C9.46466 6.73269 9.73719 6.64217 9.94205 6.45637C10.146 6.27056 10.2613 6.0066 10.2603 5.73027V4.36671C11.5267 5.0137 12.4843 6.1381 12.9226 7.49129C13.361 8.84438 13.2447 10.3156 12.5987 11.5828C11.9526 12.8502 10.8301 13.8087 9.47701 14.2491L9.47705 14.2489Z" fill="#8C51FF"/>
<path fill-rule="evenodd" clip-rule="evenodd" d="M0.990764 14.9388C1.05461 15.4495 1.49388 15.8297 2.00844 15.8192H4.89372C5.41113 15.8192 5.90756 15.6134 6.27347 15.2475C6.63937 14.8816 6.84521 14.3851 6.84521 13.8678V10.9825C6.85569 10.4679 6.4755 10.0286 5.96474 9.9648C5.68936 9.93812 5.41684 10.0286 5.21198 10.2144C5.00806 10.4003 4.89277 10.6642 4.89372 10.9405V12.5071C3.79791 11.7915 3.00036 10.7004 2.65255 9.43885C2.30475 8.17727 2.42958 6.83166 3.00416 5.65589C3.57876 4.48005 4.56306 3.5548 5.77235 3.05456C6.12777 2.89924 6.35741 2.54763 6.35741 2.15885C6.35836 1.83105 6.19542 1.52518 5.92291 1.34415C5.65038 1.16215 5.30546 1.12975 5.00339 1.25649C3.40827 1.92065 2.10006 3.12889 1.30995 4.66598C0.519065 6.20392 0.298961 7.97058 0.686771 9.65521C1.07556 11.3389 2.04652 12.8313 3.43008 13.868H1.96646C1.69013 13.867 1.42619 13.9823 1.24036 14.1862C1.05455 14.3911 0.964029 14.6636 0.990715 14.939L0.990764 14.9388Z" fill="#8C51FF"/>
</svg>
