<svg width="35" height="37" viewBox="0 0 35 37" fill="none" xmlns="http://www.w3.org/2000/svg">
<path fill-rule="evenodd" clip-rule="evenodd" d="M4.58804 33.8741C4.58804 36.2663 1.07098 36.2663 1.07098 33.8741C1.07098 26.8386 5.43236 20.9294 11.4827 18.3975C9.23151 16.5678 7.82483 13.7541 7.82483 10.6585C7.82483 5.17082 12.1862 0.668259 17.8151 0.668259C23.3028 0.668259 27.6642 5.17082 27.6642 10.6585C27.6642 13.7541 26.2574 16.5677 24.0063 18.3975C30.0567 20.9307 34.4181 26.84 34.4181 33.8741C34.4181 36.2663 30.901 36.2663 30.901 33.8741C30.901 26.6992 24.9918 20.7897 17.8165 20.7897C10.5004 20.7897 4.5912 26.6988 4.5912 33.8741H4.58804ZM17.8134 4.18707C14.1555 4.18707 11.3415 7.14169 11.3415 10.6589C11.3415 14.176 14.1552 16.9909 17.8134 16.9909C21.3304 16.9909 24.1454 14.1773 24.1454 10.6589C24.1454 7.14183 21.3318 4.18707 17.8134 4.18707Z" fill="#7367E7"/>
<path d="M4.58804 33.8741V33.4241H4.13804V33.8741H4.58804ZM11.4827 18.3975L11.6564 18.8127L12.3499 18.5225L11.7665 18.0483L11.4827 18.3975ZM24.0063 18.3975L23.7225 18.0484L23.1393 18.5224L23.8325 18.8126L24.0063 18.3975ZM4.5912 33.8741V34.3241H5.0412V33.8741H4.5912ZM4.13804 33.8741C4.13804 34.3532 3.96612 34.6779 3.7362 34.8864C3.49869 35.1018 3.1708 35.2183 2.82951 35.2183C2.48823 35.2183 2.16034 35.1018 1.92282 34.8864C1.69291 34.6779 1.52098 34.3532 1.52098 33.8741H0.620984C0.620984 34.5912 0.888692 35.1635 1.31823 35.5531C1.74016 35.9357 2.29153 36.1183 2.82951 36.1183C3.3675 36.1183 3.91887 35.9357 4.3408 35.5531C4.77033 35.1635 5.03804 34.5912 5.03804 33.8741H4.13804ZM1.52098 33.8741C1.52098 27.0323 5.76179 21.2794 11.6564 18.8127L11.309 17.9824C5.10294 20.5795 0.620984 26.6449 0.620984 33.8741H1.52098ZM11.7665 18.0483C9.61876 16.3027 8.27483 13.6165 8.27483 10.6585H7.37483C7.37483 13.8918 8.84427 16.833 11.1989 18.7467L11.7665 18.0483ZM8.27483 10.6585C8.27483 5.41519 12.4389 1.11826 17.8151 1.11826V0.218259C11.9335 0.218259 7.37483 4.92646 7.37483 10.6585H8.27483ZM17.8151 1.11826C23.046 1.11826 27.2142 5.41096 27.2142 10.6585H28.1142C28.1142 4.93068 23.5597 0.218259 17.8151 0.218259V1.11826ZM27.2142 10.6585C27.2142 13.6164 25.8702 16.3026 23.7225 18.0484L24.2902 18.7467C26.6446 16.8329 28.1142 13.8918 28.1142 10.6585H27.2142ZM23.8325 18.8126C29.7273 21.2806 33.9681 27.0338 33.9681 33.8741H34.8681C34.8681 26.6463 30.3861 20.5807 24.1801 17.9825L23.8325 18.8126ZM33.9681 33.8741C33.9681 34.3532 33.7961 34.6779 33.5662 34.8864C33.3287 35.1018 33.0008 35.2183 32.6595 35.2183C32.3182 35.2183 31.9904 35.1018 31.7528 34.8864C31.5229 34.6779 31.351 34.3532 31.351 33.8741H30.451C30.451 34.5912 30.7187 35.1635 31.1482 35.5531C31.5702 35.9357 32.1215 36.1183 32.6595 36.1183C33.1975 36.1183 33.7489 35.9357 34.1708 35.5531C34.6003 35.1635 34.8681 34.5912 34.8681 33.8741H33.9681ZM31.351 33.8741C31.351 26.4507 25.2404 20.3397 17.8165 20.3397V21.2397C24.7433 21.2397 30.451 26.9477 30.451 33.8741H31.351ZM17.8165 20.3397C10.255 20.3397 4.1412 26.4472 4.1412 33.8741H5.0412C5.0412 26.9505 10.7458 21.2397 17.8165 21.2397V20.3397ZM4.5912 33.4241H4.58804V34.3241H4.5912V33.4241ZM17.8134 3.73707C13.9006 3.73707 10.8915 6.89957 10.8915 10.6589H11.7915C11.7915 7.38382 14.4103 4.63707 17.8134 4.63707V3.73707ZM10.8915 10.6589C10.8915 14.4308 13.9131 17.4409 17.8134 17.4409V16.5409C14.3973 16.5409 11.7915 13.9211 11.7915 10.6589H10.8915ZM17.8134 17.4409C21.5789 17.4409 24.5954 14.4259 24.5954 10.6589H23.6954C23.6954 13.9287 21.082 16.5409 17.8134 16.5409V17.4409ZM24.5954 10.6589C24.5954 6.90623 21.593 3.73707 17.8134 3.73707V4.63707C21.0705 4.63707 23.6954 7.37743 23.6954 10.6589H24.5954Z" fill="#F8F4FF"/>
</svg>
