<svg width="51" height="47" viewBox="0 0 51 47" fill="none" xmlns="http://www.w3.org/2000/svg">
  <path fill-rule="evenodd" clip-rule="evenodd" d="M37.5288 7.37688C32.4196 -2.28663 18.5777 -2.28664 13.4686 7.37687L2.51205 28.1002C-1.01824 34.7775 1.61922 42.4552 7.35245 46.0344C10.1437 43.494 13.5429 41.9503 17.0884 40.6944C20.2539 39.5776 20.4178 39.0916 18.4099 36.5062C15.4289 32.6696 14.4556 28.3884 15.8079 23.683C17.2318 18.74 21.6472 15.8236 26.5849 16.4235C31.8299 17.0646 35.3231 20.8909 35.7328 26.4336C36.0298 30.4253 34.7698 33.879 32.26 36.9197C30.7028 38.8122 31.0204 39.5153 33.2229 40.4978C36.3884 41.9041 39.5127 43.445 42.504 45.172C42.9108 45.4076 43.2927 45.7003 43.6532 46.0292C49.3806 42.4478 52.0139 34.7742 48.4853 28.1002L37.5288 7.37688Z" fill="url(#paint0_linear_0_15979)"/>
  <defs>
    <linearGradient id="paint0_linear_0_15979" x1="-6.79515" y1="16.8996" x2="19.5979" y2="61.0878" gradientUnits="userSpaceOnUse">
      <stop stop-color="#C0C0C0"/>
      <stop offset="0.540208" stop-color="#A9A9A9"/>
      <stop offset="1" stop-color="#808080"/>
    </linearGradient>
  </defs>
</svg>
