<svg width="117" height="47" viewBox="0 0 117 47" fill="none" xmlns="http://www.w3.org/2000/svg">
<path fill-rule="evenodd" clip-rule="evenodd" d="M82.368 32.168C80.64 34.064 78.312 35.288 75.288 35.288C70.512 35.288 66.624 32.096 66.624 27.008C66.624 21.92 70.512 18.728 75.288 18.728C78.864 18.728 81.024 20.624 82.128 22.616L78.672 24.416C78.072 23.36 76.848 22.376 75.288 22.376C72.672 22.376 70.824 24.392 70.824 27.008C70.824 29.624 72.672 31.64 75.288 31.64C76.464 31.64 77.664 31.16 78.24 30.68V29.432H74.64V25.808H82.368V32.168ZM90.24 35.288C94.224 35.288 96.576 32.456 96.576 29.192C96.576 25.928 94.224 23.12 90.24 23.12C86.304 23.12 83.928 25.928 83.928 29.192C83.928 32.456 86.304 35.288 90.24 35.288ZM90.24 32.024C88.632 32.024 87.744 30.752 87.744 29.192C87.744 27.656 88.632 26.384 90.24 26.384C91.872 26.384 92.784 27.656 92.784 29.192C92.784 30.752 91.872 32.024 90.24 32.024ZM102.216 35V18.992H98.52V35H102.216ZM116.376 35V18.992H112.704V24.776C111.768 23.624 110.544 23.12 109.272 23.12C106.368 23.12 104.136 25.4 104.136 29.192C104.136 33.128 106.416 35.288 109.272 35.288C110.568 35.288 111.744 34.76 112.704 33.656V35H116.376ZM110.472 32.024C109.008 32.024 107.928 30.92 107.928 29.192C107.928 27.464 109.008 26.384 110.472 26.384C111.264 26.384 112.224 26.792 112.704 27.416V30.968C112.224 31.592 111.264 32.024 110.472 32.024Z" fill="url(#paint0_linear_0_15847)"/>
<path fill-rule="evenodd" clip-rule="evenodd" d="M37.5288 7.37688C32.4196 -2.28663 18.5777 -2.28664 13.4686 7.37687L2.51205 28.1002C-1.01824 34.7775 1.61922 42.4552 7.35245 46.0344C10.1437 43.494 13.5429 41.9503 17.0884 40.6944C20.2539 39.5776 20.4178 39.0916 18.4099 36.5062C15.4289 32.6696 14.4556 28.3884 15.8079 23.683C17.2318 18.74 21.6472 15.8236 26.5849 16.4235C31.8299 17.0646 35.3231 20.8909 35.7328 26.4336C36.0298 30.4253 34.7698 33.879 32.26 36.9197C30.7028 38.8122 31.0204 39.5153 33.2229 40.4978C36.3884 41.9041 39.5127 43.445 42.504 45.172C42.9108 45.4076 43.2927 45.7003 43.6532 46.0292C49.3806 42.4478 52.0139 34.7742 48.4853 28.1002L37.5288 7.37688Z" fill="url(#paint1_linear_0_15847)"/>
<defs>
<linearGradient id="paint0_linear_0_15847" x1="58.7092" y1="24.8119" x2="63.0837" y2="45.4683" gradientUnits="userSpaceOnUse">
<stop stop-color="#FFD700"/>
<stop offset="0.540208" stop-color="#FFA500"/>
<stop offset="1" stop-color="#FF8C00"/>
</linearGradient>
<linearGradient id="paint1_linear_0_15847" x1="-6.79515" y1="16.8996" x2="19.5979" y2="61.0878" gradientUnits="userSpaceOnUse">
<stop stop-color="#FFD700"/>
<stop offset="0.540208" stop-color="#FFA500"/>
<stop offset="1" stop-color="#FF8C00"/>
</linearGradient>
</defs>
</svg>
