<svg width="19" height="18" viewBox="0 0 19 18" xmlns="http://www.w3.org/2000/svg">
    <path d="m17.805 16.298-3.893-3.893a7.291 7.291 0 0 0 1.684-4.652c0-4.026-3.273-7.293-7.293-7.293s-7.3 3.267-7.3 7.293 3.274 7.294 7.294 7.294a7.267 7.267 0 0 0 4.652-1.685l3.893 3.893a.658.658 0 0 0 .47.205h.042a.72.72 0 0 0 .656-.656.646.646 0 0 0-.205-.506zm-9.508-2.605a5.95 5.95 0 0 1-5.945-5.946A5.946 5.946 0 1 1 8.297 13.7v-.006z" fill="#FFF" stroke="#FFF" stroke-width=".5" fill-rule="evenodd"/>
</svg>
