<svg width="16" height="18" viewBox="0 0 16 18" xmlns="http://www.w3.org/2000/svg">
    <g fill-rule="nonzero" fill="none">
        <path d="M14.54 2.794a13.196 13.196 0 0 1-1.578-.419c-.246-.077-.522-.16-.84-.254-1.186-.35-2.34-.8-3.45-1.345a1.35 1.35 0 0 0-1.196 0c-1.11.546-2.264.996-3.45 1.345-.319.094-.594.179-.84.254-.517.172-1.044.312-1.578.42A1.353 1.353 0 0 0 .5 4.13v3.62a9.131 9.131 0 0 0 4.695 7.981l2.218 1.233c.41.23.91.23 1.32 0l2.22-1.233a9.131 9.131 0 0 0 4.695-7.98V4.13a1.353 1.353 0 0 0-1.108-1.337z" fill="#96F775"/>
        <path d="M7.297 10.255a.578.578 0 0 1-.412-.171L5.332 8.53a.583.583 0 0 1 .823-.823l1.142 1.14 2.696-2.694a.583.583 0 0 1 .823.823l-3.107 3.108a.578.578 0 0 1-.412.17z" fill="#FFF"/>
    </g>
</svg>
