<svg width="37" height="42" viewBox="0 0 37 42" xmlns="http://www.w3.org/2000/svg">
    <g fill="#000" fill-rule="evenodd">
        <path d="M17.88 33.14h.912v-.873c1.402-.144 2.093-.96 2.093-2.026 0-1.305-1.104-1.69-2.093-1.939V26.95c.432.105.845.307 1.19.624l.76-.999c-.52-.47-1.172-.768-1.95-.854v-.912h-.912v.893c-1.296.134-2.064.96-2.064 1.93 0 1.305 1.076 1.67 2.064 1.92v1.516a2.776 2.776 0 0 1-1.526-.826l-.74 1.037c.52.528 1.258.912 2.266.999v.864zm1.623-2.745c0 .298-.24.576-.71.672v-1.286c.412.134.71.297.71.614zm-2.295-2.88c0-.326.24-.566.672-.624v1.171c-.403-.115-.672-.269-.672-.547z" fill-rule="nonzero"/>
        <path d="M33.6 19.295a5.62 5.62 0 0 0-4.008-1.664l-22.684.002A5.587 5.587 0 0 0 2.9 19.297c-1.058 1.078-1.664 2.495-1.664 4.007v11.342A5.62 5.62 0 0 0 2.9 38.653a5.62 5.62 0 0 0 4.007 1.664h22.684a5.62 5.62 0 0 0 4.007-1.664 5.62 5.62 0 0 0 1.664-4.007V23.304a5.62 5.62 0 0 0-1.664-4.007v-.002zM31.48 34.644c0 .49-.207.983-.547 1.341-.34.36-.831.548-1.342.548l-22.684.002a1.872 1.872 0 0 1-1.89-1.89V23.303a1.872 1.872 0 0 1 1.89-1.889h22.684c.491 0 .984.207 1.342.548.36.34.547.83.547 1.341v11.342-.001zM13.125 8.322a1.883 1.883 0 0 1 0-2.666l3.78-3.78c.17-.17.377-.32.624-.416a1.887 1.887 0 0 1 2.06.416l3.78 3.78a1.883 1.883 0 0 1-1.34 3.213c-.492 0-.965-.19-1.342-.547l-.548-.548v4.897c0 1.04-.85 1.89-1.89 1.89-1.041 0-1.892-.85-1.892-1.89V7.774l-.547.548a1.883 1.883 0 0 1-2.666 0h-.02z" stroke="#FFF" stroke-width="1.5"/>
    </g>
</svg>
