<?xml version="1.0" encoding="UTF-8"?>
<svg width="37px" height="41px" viewBox="0 0 37 41" version="1.1" xmlns="http://www.w3.org/2000/svg" xmlns:xlink="http://www.w3.org/1999/xlink">
    <title>01</title>
    <g id="Add-Bill-/-Document" stroke="none" stroke-width="1" fill="none" fill-rule="evenodd">
        <g id="Artboard" transform="translate(-493, -297)" fill="#FFFFFF">
            <g id="01" transform="translate(494.2367, 298.1587)">
                <g id="$" transform="translate(14.3781, 23.4905)" fill-rule="nonzero">
                    <path d="M2.2656,8.3328 L3.1776,8.3328 L3.1776,7.4592 C4.5792,7.3152 5.2704,6.4992 5.2704,5.4336 C5.2704,4.128 4.1664,3.744 3.1776,3.4944 L3.1776,2.1408 C3.6096,2.2464 4.0224,2.448 4.368,2.7648 L5.1264,1.7664 C4.608,1.296 3.9552,0.9984 3.1776,0.912 L3.1776,0 L2.2656,0 L2.2656,0.8928 C0.9696,1.0272 0.2016,1.8528 0.2016,2.8224 C0.2016,4.128 1.2768,4.4928 2.2656,4.7424 L2.2656,6.2592 C1.6128,6.144 1.0944,5.808 0.7392,5.4336 L0,6.4704 C0.5184,6.9984 1.2576,7.3824 2.2656,7.4688 L2.2656,8.3328 Z M3.888,5.5872 C3.888,5.8848 3.648,6.1632 3.1776,6.2592 L3.1776,4.9728 C3.5904,5.1072 3.888,5.2704 3.888,5.5872 Z M1.5936,2.7072 C1.5936,2.3808 1.8336,2.1408 2.2656,2.0832 L2.2656,3.2544 C1.8624,3.1392 1.5936,2.9856 1.5936,2.7072 Z" id="Shape"></path>
                </g>
                <path d="M32.3624006,17.9780017 C31.284894,16.9004951 29.8671221,16.3138778 28.355437,16.3138778 L5.67108741,16.3156517 C4.15940235,16.3156517 2.72212196,16.902269 1.66412389,17.9797756 C0.606125822,19.0572822 0,20.4750541 0,21.9867391 L0,33.328914 C0,34.840599 0.586617282,36.2583709 1.66412389,37.3358775 C2.7416305,38.4133827 4.15940235,39 5.67108741,39 L28.355437,39 C29.8671221,39 31.284894,38.4133827 32.3624006,37.3358775 C33.4399072,36.2583709 34.0265244,34.840599 34.0265244,33.328914 L34.0265244,21.9867391 C34.0265244,20.4750541 33.4399072,19.0572822 32.3624006,17.9797756 L32.3624006,17.9780017 Z M30.2445897,33.3262524 C30.2445897,33.8171417 30.0372411,34.3098458 29.6969895,34.6678048 C29.3567242,35.027565 28.8658349,35.215405 28.355437,35.215405 L5.67108741,35.217179 C5.16068954,35.217179 4.68749401,35.0275514 4.32953497,34.6695788 C3.9697748,34.3098186 3.78193477,33.8384242 3.78193477,33.3280263 L3.78193477,21.9858515 C3.78193477,21.4754536 3.97156232,21.0022581 4.32953497,20.6442991 C4.68929515,20.2845389 5.16068954,20.0966989 5.67108741,20.0966989 L28.355437,20.0966989 C28.8463264,20.0966989 29.3390304,20.3040474 29.6969895,20.6442991 C30.0567497,20.9845643 30.2445897,21.4754536 30.2445897,21.9858515 L30.2445897,33.3280263 L30.2445897,33.3262524 Z" id="Fill-1" stroke="#363636" stroke-width="1.5"></path>
                <path d="M11.8879603,7.00422282 C11.1507189,6.26698145 11.1507189,5.0760531 11.8879603,4.33881174 L15.6680803,0.558691713 C15.8382129,0.388559091 16.0455615,0.237921398 16.2918999,0.142220664 C16.7455869,-0.0474068881 17.2754933,-0.0474068881 17.7291803,0.142220664 C17.9560238,0.236147482 18.1633724,0.369064161 18.3529999,0.558691713 L22.1331199,4.33881174 C22.8703613,5.0760531 22.8703613,6.26698145 22.1331199,7.00422282 C21.7556387,7.38170401 21.2824568,7.55182302 20.7915675,7.55182302 C20.3006782,7.55182302 19.8274826,7.36219547 19.4500151,7.00422282 L18.9024149,6.45662262 L18.9024149,11.3532663 C18.9024149,12.3935706 18.0517518,13.2442337 17.0114475,13.2442337 C15.9711432,13.2442337 15.1204801,12.3935706 15.1204801,11.3532663 L15.1204801,6.45662262 L14.5728799,7.00422282 C13.8356385,7.74146418 12.6447102,7.74146418 11.9074688,7.00422282 L11.8879603,7.00422282 Z" id="Path" stroke="#363636" stroke-width="1.5"></path>
            </g>
        </g>
    </g>
</svg>