<svg width="20" height="19" viewBox="0 0 20 19" xmlns="http://www.w3.org/2000/svg">
    <g fill="#FFF" fill-rule="evenodd">
        <path d="m12.028 2.036-.123-.49a1.875 1.875 0 0 0-1.82-1.421H9.54c-.861 0-1.611.586-1.82 1.42l-.127.49c-.05.199-.195.36-.388.432h-.003c-.175.066-.349.138-.518.22a.622.622 0 0 1-.582-.032l-.434-.26a1.876 1.876 0 0 0-2.29.282l-.388.387a1.876 1.876 0 0 0-.281 2.29l.256.437a.62.62 0 0 1 .031.58l-.001.003a5.93 5.93 0 0 0-.212.522.626.626 0 0 1-.434.388l-.49.123a1.875 1.875 0 0 0-1.42 1.82v.546c0 .861.585 1.611 1.42 1.82l.489.127c.2.05.36.195.432.388v.003c.066.176.139.35.22.518a.622.622 0 0 1-.032.582l-.26.434a1.876 1.876 0 0 0 .282 2.29l.387.388c.61.608 1.553.725 2.291.282l.437-.257a.62.62 0 0 1 .58-.03h.002c.172.079.344.15.522.212a.626.626 0 0 1 .389.434l.122.49c.209.835.959 1.421 1.82 1.421h.547c.86 0 1.61-.586 1.82-1.42l.127-.49a.62.62 0 0 1 .387-.432h.003c.176-.066.35-.138.518-.22a.622.622 0 0 1 .582.032l.435.26a1.876 1.876 0 0 0 2.29-.282l.388-.387c.608-.61.724-1.553.281-2.29l-.256-.437a.62.62 0 0 1-.032-.58l.002-.003a5.93 5.93 0 0 0 .212-.522.626.626 0 0 1 .433-.388l.491-.123a1.875 1.875 0 0 0 1.42-1.82v-.546c0-.861-.586-1.611-1.42-1.82l-.49-.127a.622.622 0 0 1-.432-.388V6.89a6.157 6.157 0 0 0-.22-.518.622.622 0 0 1 .033-.582l.259-.434a1.876 1.876 0 0 0-.281-2.29l-.388-.388a1.876 1.876 0 0 0-2.29-.282l-.437.257a.62.62 0 0 1-.58.03h-.003a5.833 5.833 0 0 0-.522-.212.626.626 0 0 1-.388-.434zm-1.335-.188.122.491c.151.602.59 1.09 1.173 1.305l.011.004c.142.049.28.107.417.17.559.259 1.213.225 1.744-.091.139-.08.291-.17.44-.26a.624.624 0 0 1 .764.094l.387.387a.624.624 0 0 1 .094.764l-.26.434a1.875 1.875 0 0 0-.092 1.755l.004.01c.066.134.123.273.176.414a1.871 1.871 0 0 0 1.296 1.167c.154.042.326.085.495.128.278.069.473.319.473.607v.546a.625.625 0 0 1-.473.607l-.49.123c-.603.15-1.091.59-1.305 1.173l-.004.01c-.05.143-.107.281-.17.418a1.871 1.871 0 0 0 .09 1.744c.08.139.171.291.26.44.148.246.11.56-.094.764l-.387.387a.624.624 0 0 1-.763.094l-.435-.26a1.875 1.875 0 0 0-1.754-.093l-.01.005a4.736 4.736 0 0 1-.415.176 1.871 1.871 0 0 0-1.167 1.296l-.127.495a.625.625 0 0 1-.607.473h-.547a.625.625 0 0 1-.607-.473l-.123-.491a1.875 1.875 0 0 0-1.172-1.305l-.011-.004a4.709 4.709 0 0 1-.418-.17 1.871 1.871 0 0 0-1.743.091l-.441.26a.624.624 0 0 1-.763-.094l-.388-.387a.624.624 0 0 1-.093-.764l.26-.434c.32-.534.354-1.19.092-1.755l-.005-.01a4.736 4.736 0 0 1-.176-.414 1.871 1.871 0 0 0-1.296-1.167l-.494-.127a.625.625 0 0 1-.474-.608v-.546c0-.288.196-.538.474-.607l.49-.123c.603-.15 1.091-.59 1.305-1.173l.004-.01c.05-.143.107-.281.17-.418a1.871 1.871 0 0 0-.091-1.744l-.26-.44a.624.624 0 0 1 .094-.764l.388-.387a.624.624 0 0 1 .763-.094l.434.26c.534.32 1.191.355 1.755.093l.01-.005c.135-.066.273-.123.414-.176a1.871 1.871 0 0 0 1.167-1.296c.043-.154.086-.326.128-.495a.625.625 0 0 1 .607-.473h.547c.287 0 .537.195.607.473z"/>
        <path d="M9.829 5.125a4.393 4.393 0 0 0-4.392 4.391 4.393 4.393 0 0 0 4.392 4.392 4.394 4.394 0 0 0 4.391-4.392A4.393 4.393 0 0 0 9.83 5.125zm0 1.25a3.143 3.143 0 0 1 3.141 3.141 3.143 3.143 0 0 1-3.141 3.142 3.143 3.143 0 0 1-3.142-3.142A3.143 3.143 0 0 1 9.83 6.375z"/>
    </g>
</svg>
