<svg width="11" height="14" viewBox="0 0 11 14" xmlns="http://www.w3.org/2000/svg">
    <path d="M2.818 13.402a.576.576 0 0 1 0-.81c.227-.259.564-.636 1.211-.636.648 0 .996.39 1.222.648.197.225.245.259.366.259s.17-.034.367-.26c.225-.256.563-.647 1.221-.647.66 0 .997.39 1.222.648.197.225.245.259.366.259s.17-.034.367-.26h-.001a.569.569 0 0 1 .856.75c-.226.257-.563.647-1.222.647s-.997-.39-1.222-.648c-.197-.225-.245-.259-.366-.259s-.169.034-.366.26c-.226.257-.564.647-1.221.647-.657 0-1-.39-1.229-.648-.196-.225-.244-.259-.366-.259-.12 0-.169.034-.366.26l-.024.025-.017.018a.563.563 0 0 1-.798.006zm1.588-3.086L1.46 11.888a.586.586 0 0 1-.861-.542l.14-3.336a.583.583 0 0 1 .09-.281L5.216.83A.586.586 0 0 1 5.58.572a2.934 2.934 0 0 1 3.506 2.206.587.587 0 0 1-.077.442l-4.386 6.898a.586.586 0 0 1-.218.198zm-.694-.961a1.758 1.758 0 0 0-1.807-1.137l-.05 1.303c.282.059.532.218.704.449l1.153-.615z" fill="#000" fill-rule="evenodd"/>
</svg>
