<svg width="15" height="15" viewBox="0 0 15 15" xmlns="http://www.w3.org/2000/svg">
    <g fill="#FFF" fill-rule="evenodd">
        <path d="m11.883 14.702 2.9-2.9a.7.7 0 0 0 0-1.015.7.7 0 0 0-1.015 0L12.1 12.454V3.32c0-.435-.29-.725-.725-.725s-.725.29-.725.725v9.134l-1.667-1.667a.7.7 0 0 0-1.015 0 .7.7 0 0 0 0 1.015l2.9 2.9a.7.7 0 0 0 1.015 0zM4.85 12.02V2.883l1.668 1.668a.7.7 0 0 0 1.015 0 .7.7 0 0 0 0-1.015l-2.9-2.9a.7.7 0 0 0-1.015 0l-2.9 2.9a.7.7 0 0 0 0 1.015.7.7 0 0 0 1.015 0L3.4 2.884v9.135c0 .435.29.725.725.725s.725-.29.725-.725z"/>
    </g>
</svg>
