<svg width="13" height="11" viewBox="0 0 13 11" xmlns="http://www.w3.org/2000/svg">
    <g fill="#000" fill-rule="evenodd">
        <path d="M7.832 7.492H.96a.718.718 0 0 1-.716-.716c0-.394.322-.716.716-.716h6.872c.394 0 .716.322.716.716a.717.717 0 0 1-.716.716zM8.416 4.562H.96a.718.718 0 0 1-.716-.716c0-.394.322-.716.716-.716h7.455a.717.717 0 0 1 0 1.432zM7.05 10.436H.96a.718.718 0 0 1-.716-.716c0-.393.322-.715.716-.715h6.09c.394 0 .716.322.716.715a.718.718 0 0 1-.716.716zM9.987 6.228l1.072-1.857a.382.382 0 0 1 .662 0l1.072 1.857a.382.382 0 0 1-.33.573h-2.145a.382.382 0 0 1-.331-.573zM9.098 1.69H.96A.718.718 0 0 1 .244.972C.244.579.566.257.96.257h8.138c.394 0 .716.322.716.716a.718.718 0 0 1-.716.716z"/>
    </g>
</svg>
