<svg width="20" height="19" viewBox="0 0 20 19" xmlns="http://www.w3.org/2000/svg">
    <g fill-rule="nonzero" fill="none">
        <path d="m13.173 5.972-3.338 3.51V.75c.466-.004.892.26 1.098.68l1.957 3.965c.004.007.007.015.01.026l.273.55z" fill="#FAF180"/>
        <path d="m6.497 5.972 3.338 3.51V.75a1.213 1.213 0 0 0-1.098.68L6.78 5.394a.179.179 0 0 0-.011.026l-.272.55z" fill="#FFAA39"/>
        <path d="M19.121 7.396 9.835 9.482l3.338-3.51.606.088.029.003 4.38.64c.408.058.76.319.933.693z" fill="#FFC943"/>
        <path d="M18.864 8.788 15.7 11.876l-.459.448-5.405-2.842 9.286-2.086c.22.47.118 1.028-.257 1.392z" fill="#FFAA39"/>
        <path d="M15.67 18.464 9.835 9.482l5.401 2.842.11.632.746 4.362c.077.43-.085.87-.422 1.146z" fill="#FFC943"/>
        <path d="M15.67 18.464a1.21 1.21 0 0 1-1.348.143l-3.914-2.06a.253.253 0 0 0-.03-.011l-.543-.287V9.482l5.835 8.982z" fill="#FFAA39"/>
        <path d="M9.835 9.482v6.767l-.544.287-.029.01-3.914 2.06c-.437.236-.97.177-1.348-.142l5.835-8.982z" fill="#FAF180"/>
        <path d="m9.835 9.482-5.831 8.982a1.208 1.208 0 0 1-.426-1.146l.745-4.362.11-.632 5.402-2.842z" fill="#FFC943"/>
        <path d="m9.835 9.482-5.402 2.842-.459-.448L.81 8.788a1.216 1.216 0 0 1-.257-1.392l9.283 2.086z" fill="#FFAA39"/>
        <path d="M9.835 9.482.548 7.396c.173-.374.526-.635.933-.694l4.377-.635c.007 0 .022-.004.03-.004l.605-.088 3.342 3.507z" fill="#FFC943"/>
    </g>
</svg>
