<svg width="17" height="17" viewBox="0 0 17 17" xmlns="http://www.w3.org/2000/svg">
    <path d="M14.949.585H2.244C1.288.585.51 1.362.51 2.317v12.705c0 .955.777 1.733 1.733 1.733h12.705c.955 0 1.732-.778 1.732-1.733V2.317c0-.955-.777-1.732-1.732-1.732zm0 1.155c.318 0 .577.259.577.577V4.05H9.174V1.74h5.775zm-12.705 0h5.775v10.395H1.666V2.317c0-.318.26-.577.578-.577zm0 13.86a.578.578 0 0 1-.578-.578V13.29h6.353v2.31H2.244zm12.705 0H9.174V5.205h6.352v9.817c0 .318-.26.578-.577.578z" fill="#FFF" stroke="#FFF" stroke-width=".22" fill-rule="evenodd"/>
</svg>
