<svg width="19" height="19" viewBox="0 0 19 19" xmlns="http://www.w3.org/2000/svg">
    <path d="M18.926 13.043v2.363a3.548 3.548 0 0 1-3.544 3.544H3.568a3.548 3.548 0 0 1-3.544-3.544v-2.363a1.181 1.181 0 1 1 2.363 0v2.363c0 .652.53 1.18 1.181 1.182h11.814a1.184 1.184 0 0 0 1.182-1.182v-2.363a1.182 1.182 0 0 1 2.362 0zM6.742 5.43l1.551-1.464v9.077a1.182 1.182 0 0 0 2.364 0V3.966L12.21 5.43h-.001a1.182 1.182 0 0 0 1.621-1.72L10.286.37a1.196 1.196 0 0 0-.175-.11 1.156 1.156 0 0 0-.193-.123 1.18 1.18 0 0 0-.886 0 1.155 1.155 0 0 0-.193.122c-.062.032-.12.069-.175.111L5.12 3.711A1.182 1.182 0 0 0 6.742 5.43z" fill="#000" fill-rule="evenodd"/>
</svg>
