<svg width="16" height="17" viewBox="0 0 16 17" xmlns="http://www.w3.org/2000/svg">
    <path d="M7.476.144a1.392 1.392 0 0 1 1.233 0 22.38 22.38 0 0 0 3.554 1.386c.328.097.612.182.865.262.533.177 1.076.321 1.626.431A1.394 1.394 0 0 1 15.895 3.6v3.73a9.408 9.408 0 0 1-4.837 8.222l-2.287 1.27a1.393 1.393 0 0 1-1.36 0l-2.285-1.27A9.408 9.408 0 0 1 .288 7.33V3.6A1.394 1.394 0 0 1 1.43 2.223c.55-.11 1.093-.254 1.625-.431.254-.078.538-.165.865-.262A22.418 22.418 0 0 0 7.476.144zm4.384 5.614a.803.803 0 0 0-1.116-.02L7.03 9.452 5.456 7.88A.803.803 0 0 0 4.32 9.014l2.141 2.142c.15.15.355.236.568.235a.797.797 0 0 0 .567-.235l4.282-4.283a.803.803 0 0 0-.02-1.115z" fill="#000" fill-rule="nonzero"/>
</svg>
