<svg width="31" height="9" viewBox="0 0 31 9" xmlns="http://www.w3.org/2000/svg">
    <g fill="#FFF" fill-rule="nonzero">
        <path d="M11.373 8.764 12.88.283h2.356l-1.46 8.481z"/>
        <path d="M11.373 8.764 13.305.283h1.931l-1.46 8.481zM22.305.377C21.833.188 21.079 0 20.137 0c-2.356 0-4.052 1.178-4.052 2.874 0 1.273 1.178 1.932 2.12 2.356.942.424 1.225.707 1.225 1.084 0 .566-.754.848-1.413.848-.943 0-1.461-.141-2.262-.47l-.33-.142-.33 1.932c.566.235 1.602.47 2.686.47 2.497 0 4.147-1.177 4.147-2.968 0-.99-.613-1.743-2.027-2.356-.848-.424-1.366-.66-1.366-1.083 0-.377.424-.754 1.366-.754.801 0 1.367.14 1.791.33l.236.094.377-1.838z"/>
        <path d="M22.305.377C21.833.188 21.079 0 20.137 0c-2.356 0-3.628 1.178-3.628 2.874 0 1.273.754 1.932 1.696 2.356.942.424 1.225.707 1.225 1.084 0 .566-.754.848-1.413.848-.943 0-1.461-.141-2.262-.47l-.33-.142-.33 1.932c.566.235 1.602.47 2.686.47 2.497 0 4.147-1.177 4.147-2.968 0-.99-.613-1.743-2.027-2.356-.848-.424-1.366-.66-1.366-1.083 0-.377.424-.754 1.366-.754.801 0 1.367.14 1.791.33l.236.094.377-1.838zM26.357.283c-.566 0-.99.047-1.225.612l-3.534 7.87h2.544l.471-1.414h3.016l.283 1.413h2.262L28.194.283h-1.837zm-1.084 5.654c.142-.424.943-2.497.943-2.497s.188-.519.33-.848l.14.8s.472 2.121.566 2.592h-1.979v-.047z"/>
        <path d="M26.922.283c-.565 0-.99.047-1.225.612l-4.1 7.87h2.545l.471-1.414h3.016l.283 1.413h2.262L28.194.283h-1.272zm-1.649 5.654c.189-.471.943-2.497.943-2.497s.188-.519.33-.848l.14.8s.472 2.121.566 2.592h-1.979v-.047zM7.038 6.22l-.236-1.225c-.424-1.414-1.79-2.969-3.298-3.723l2.12 7.54h2.544L11.985.33H9.441L7.038 6.22z"/>
        <path d="m7.038 6.22-.236-1.225c-.424-1.414-1.79-2.969-3.298-3.723l2.12 7.54h2.544L11.985.33H9.912L7.038 6.22z"/>
        <path d="m.488.283.424.094C3.928 1.084 6 2.874 6.802 4.995L5.954.99C5.812.424 5.388.283 4.87.283H.488z"/>
        <path d="M.488.283C3.504.99 6 2.827 6.802 4.948L6 1.602A1.15 1.15 0 0 0 4.87.707L.488.283z"/>
        <path d="M.488.283C3.504.99 6 2.827 6.802 4.948L6.236 3.11c-.14-.565-.33-1.13-.989-1.367L.487.283z"/>
        <path d="M9.394 5.937 7.79 4.335l-.753 1.79-.189-1.177c-.424-1.414-1.79-2.969-3.298-3.723l2.12 7.54h2.545l1.178-2.828zM13.776 8.764 11.75 6.691l-.377 2.073zM19.195 5.843c.188.188.282.33.235.518 0 .566-.754.848-1.413.848-.943 0-1.461-.141-2.262-.47l-.33-.142-.33 1.932c.566.235 1.602.471 2.686.471 1.508 0 2.733-.424 3.44-1.178l-2.026-1.98zM21.928 8.764h2.214l.471-1.413h3.016l.283 1.413h2.262l-.801-3.44-2.828-2.732.142.754s.47 2.12.565 2.591h-1.979c.189-.471.943-2.497.943-2.497s.188-.519.33-.848"/>
    </g>
</svg>
