<?xml version="1.0" encoding="UTF-8"?>
<svg width="27px" height="26px" viewBox="0 0 27 26" version="1.1" xmlns="http://www.w3.org/2000/svg" xmlns:xlink="http://www.w3.org/1999/xlink">
    <title>Group 2</title>
    <defs>
        <polygon id="path-1" points="0 0 25.5999912 0 25.5999912 25.5999988 0 25.5999988"></polygon>
    </defs>
    <g id="Add-Bill-/-Document" stroke="none" stroke-width="1" fill="none" fill-rule="evenodd">
        <g id="Save-for-later" transform="translate(-304, -836)">
            <g id="Group-9" transform="translate(278.9752, 351.8695)">
                <g id="Group-8" transform="translate(0, 154.7391)">
                    <g id="Group-6" transform="translate(3.5, 305.5219)">
                        <g id="Group-2" transform="translate(22.2, 24.2)">
                            <mask id="mask-2" fill="white">
                                <use xlink:href="#path-1"></use>
                            </mask>
                            <g id="Clip-2"></g>
                            <path d="M15.6307675,10.2700525 C15.618505,10.2461275 15.6034675,10.21269 15.5849175,10.1813525 C15.50318,10.0434025 15.350705,9.96684 15.193105,9.9935525 C15.031105,10.02099 14.9218425,10.11619 14.8796675,10.27689 C14.8651675,10.332115 14.8630175,10.39179 14.863005,10.44944 C14.8624425,12.0012025 14.8628925,13.5529775 14.863205,15.10474 C14.8632175,15.1338775 14.8622425,15.163065 14.864005,15.1921025 C14.8771175,15.40774 15.0447175,15.5723775 15.2513175,15.5732184 C15.4653425,15.57409 15.63268,15.4074025 15.640455,15.184915 C15.6419175,15.1433525 15.641055,15.101715 15.641055,15.060115 C15.64113,14.1240525 15.6382425,13.1880025 15.6431925,12.251965 C15.6445175,12.003015 15.65753,11.752715 15.6869925,11.5056525 C15.7360175,11.094665 15.93343,10.88144 16.33543,10.78434 C16.447755,10.7572025 16.5647675,10.74919 16.67973,10.73324 C16.7372675,10.725265 16.7965675,10.7251775 16.85243,10.711115 C17.038305,10.6643275 17.1501675,10.5014025 17.1338425,10.3089525 C17.118755,10.1312525 16.9721925,9.97674 16.794755,9.9645525 C16.548155,9.9476025 16.3021925,9.9603025 16.0707175,10.055665 C15.92233,10.11679 15.7813425,10.1959025 15.6307675,10.2700525 M5.08023,12.7807775 C5.02863,12.820165 4.9847925,12.846415 4.94973,12.881465 C4.28743,13.543365 3.62613,14.2062525 2.964855,14.8691525 C2.92963,14.9044525 2.893255,14.939315 2.8628675,14.978615 C2.738355,15.139665 2.7507675,15.3476525 2.89098,15.489965 C3.03358,15.63469 3.25063,15.6478775 3.4123925,15.519765 C3.4481175,15.4914775 3.4796175,15.4577275 3.5119925,15.425415 C4.1804925,14.7579275 4.8487675,14.0902525 5.517305,13.4228275 C5.5489925,13.3911775 5.582455,13.3613025 5.62108,13.324965 C5.659355,13.36119 5.6926175,13.39124 5.7242925,13.4228775 C6.39573,14.0932775 7.0669175,14.763965 7.7384925,15.4342275 C7.77373,15.46939 7.8090925,15.50569 7.8495175,15.5341775 C8.01063,15.6477525 8.2140175,15.6281775 8.35023,15.48914 C8.486655,15.349865 8.5018925,15.1462025 8.3845675,14.9875025 C8.35263,14.9443025 8.3133425,14.90619 8.27523,14.8679525 C7.6082425,14.1989775 6.94088,13.5303775 6.27383,12.861465 C6.242955,12.83049 6.214355,12.7972525 6.1694175,12.7485025 C6.216205,12.7114525 6.2553925,12.6862525 6.28758,12.654065 C6.9554925,11.98599 7.622755,11.31729 8.2894925,10.6480775 C8.33038,10.60704 8.37213,10.564565 8.4026925,10.5159775 C8.5040925,10.3548025 8.4748425,10.1548775 8.336455,10.02699 C8.1992175,9.9001525 7.995355,9.8879025 7.84323,10.0002025 C7.8033425,10.029665 7.7681425,10.0659025 7.7328925,10.1011275 C7.0645175,10.7687275 6.39648,11.4366525 5.7282925,12.1044275 C5.69658,12.136115 5.664055,12.167015 5.624755,12.20524 C5.58248,12.1647525 5.5465175,12.1314525 5.5118175,12.0968775 C4.84563,11.4329775 4.17963,10.76889 3.513455,10.10499 C3.481055,10.0727025 3.4496675,10.0388275 3.4139425,10.010565 C3.254555,9.8844275 3.031805,9.897515 2.8914425,10.0393775 C2.74978,10.18254 2.7399925,10.4021275 2.86988,10.5614525 C2.898705,10.5968025 2.9324925,10.628165 2.9648425,10.660515 C3.6298425,11.3256025 4.2949925,11.99054 4.9599675,12.65564 C4.9918925,12.687565 5.0225925,12.7207275 5.08023,12.7807775 M19.80578,15.620165 C21.430705,15.61694 22.6596675,14.2797275 22.6606931,12.77039 C22.6617425,11.2048275 21.37603,9.9089025 19.8040425,9.91016408 C18.2289925,9.911415 16.9532675,11.206715 16.9491954,12.7596275 C16.94523,14.2763025 18.1771675,15.6171025 19.80578,15.620165 M9.236305,13.07999 C9.3049925,13.07999 9.3542425,13.0800025 9.4034925,13.0800025 C10.6684675,13.07999 11.93343,13.08039 13.1983925,13.0791525 C13.289555,13.0790525 13.3816925,13.0733275 13.4716675,13.0593025 C13.8838175,12.995015 14.15478,12.638215 14.0778425,12.245015 C13.9666175,11.676665 13.7239425,11.16799 13.30823,10.7605025 C12.5629675,10.030015 11.6677675,9.7722775 10.6488425,9.9900025 C9.17643,10.30464 8.24663,11.7303275 8.4510925,13.175215 C8.56323,13.9676775 8.9561925,14.604065 9.60123,15.0758775 C10.20808,15.519765 10.891605,15.7021775 11.6389175,15.6018775 C12.437455,15.49469 13.076955,15.10689 13.55913,14.462215 C13.6002425,14.40724 13.6299925,14.33889 13.647605,14.272165 C13.6934425,14.098415 13.6133175,13.9220275 13.45953,13.83574 C13.2983175,13.74529 13.12413,13.7680025 12.99073,13.901615 C12.9469425,13.9454775 12.912205,13.99829 12.8724925,14.046315 C12.321505,14.7125275 11.619905,14.96144 10.779705,14.7657775 C10.1051425,14.6087025 9.650305,14.173165 9.365155,13.551765 C9.2990925,13.4078025 9.25688,13.2564775 9.236305,13.07999 M0.0782425,12.80099 C0.0881925,5.6962525 5.8653425,0.056165 12.8359425,0.0662265232 C19.8144175,0.076315 25.5577675,5.7485775 25.5515226,12.8164525 C25.54533,19.79944 19.89178,25.5426775 12.8079925,25.5379429 C5.7510675,25.53324 0.08373,19.819415 0.0782425,12.80099" id="Fill-4" fill="#FFFFFF" mask="url(#mask-2)"></path>
                            <path d="M13.2616637,12.2873625 L9.26883875,12.2873625 C9.34912625,11.9281125 9.51751375,11.624875 9.76167625,11.3645 C10.1204137,10.9819375 10.5640262,10.758375 11.0871137,10.717125 C12.3740012,10.615675 13.1394387,11.588125 13.2616637,12.2873625" id="Fill-14" fill="#FFFFFF" mask="url(#mask-2)"></path>
                            <path d="M20.5093082,12.7629975 C20.50877,12.369035 20.1979325,12.05966 19.80322,12.0602467 C19.40962,12.0608475 19.100295,12.37211 19.1010187,12.7668475 C19.1017575,13.161435 19.4119325,13.4700475 19.8070075,13.4692366 C20.2014075,13.468435 20.509845,13.15826 20.5093082,12.7629975 M19.799245,14.8122248 C18.66867,14.8105475 17.755395,13.8928475 17.7567934,12.7598725 C17.758195,11.63166 18.6795075,10.714385 19.80972,10.7159455 C20.9369575,10.7174975 21.8542075,11.639685 21.8530461,12.770285 C21.851895,13.8984475 20.9311325,14.813885 19.799245,14.8122248" id="Fill-16" fill="#FFFFFF" mask="url(#mask-2)"></path>
                        </g>
                    </g>
                </g>
            </g>
        </g>
    </g>
</svg>